<svg width="24" height="24" viewBox="0 0 24 24" fill="none" xmlns="http://www.w3.org/2000/svg">
<path fill-rule="evenodd" clip-rule="evenodd" d="M5.26985 5.94041C5.41225 5.76439 5.62654 5.66211 5.85294 5.66211H20.3512C21.5762 5.66211 22.49 6.80384 22.1948 8.00126L20.6486 14.8303L20.6444 14.8482C20.3309 16.0903 19.2683 16.9985 17.992 17.1251C17.97 17.1273 17.9479 17.1285 17.9257 17.1287L10.1297 17.2093C8.60208 17.3424 7.20277 16.3249 6.88211 14.8213C6.88208 14.8212 6.88213 14.8214 6.88211 14.8213L5.11949 6.56876C5.0722 6.34735 5.12746 6.11643 5.26985 5.94041ZM6.78005 7.16211L8.34902 14.508C8.5106 15.266 9.22575 15.7913 10.0177 15.7132C10.0396 15.7111 10.0615 15.7099 10.0835 15.7097L17.8738 15.6292C18.5103 15.5538 19.0305 15.0991 19.1879 14.4892L20.7336 7.66217L20.7378 7.64447C20.7979 7.40588 20.618 7.16211 20.3512 7.16211H6.78005Z" fill="#EE7767"/>
<path fill-rule="evenodd" clip-rule="evenodd" d="M5.26985 5.94041C5.41225 5.76439 5.62654 5.66211 5.85294 5.66211H20.3512C21.5762 5.66211 22.49 6.80384 22.1948 8.00126L20.6486 14.8303L20.6444 14.8482C20.3309 16.0903 19.2683 16.9985 17.992 17.1251C17.97 17.1273 17.9479 17.1285 17.9257 17.1287L10.1297 17.2093C8.60208 17.3424 7.20277 16.3249 6.88211 14.8213C6.88208 14.8212 6.88213 14.8214 6.88211 14.8213L5.11949 6.56876C5.0722 6.34735 5.12746 6.11643 5.26985 5.94041ZM6.78005 7.16211L8.34902 14.508C8.5106 15.266 9.22575 15.7913 10.0177 15.7132C10.0396 15.7111 10.0615 15.7099 10.0835 15.7097L17.8738 15.6292C18.5103 15.5538 19.0305 15.0991 19.1879 14.4892L20.7336 7.66217L20.7378 7.64447C20.7979 7.40588 20.618 7.16211 20.3512 7.16211H6.78005Z" fill="#F26552"/>
<path fill-rule="evenodd" clip-rule="evenodd" d="M1.75 1.94141C1.75 1.52719 2.08579 1.19141 2.5 1.19141H4.93491C5.29097 1.19141 5.59795 1.44176 5.66958 1.79054L6.58761 6.26113C6.67093 6.66688 6.40955 7.06334 6.00381 7.14666C5.59806 7.22998 5.20159 6.96861 5.11827 6.56286L4.32327 2.69141H2.5C2.08579 2.69141 1.75 2.35562 1.75 1.94141Z" fill="#EE7767"/>
<path fill-rule="evenodd" clip-rule="evenodd" d="M1.75 1.94141C1.75 1.52719 2.08579 1.19141 2.5 1.19141H4.93491C5.29097 1.19141 5.59795 1.44176 5.66958 1.79054L6.58761 6.26113C6.67093 6.66688 6.40955 7.06334 6.00381 7.14666C5.59806 7.22998 5.20159 6.96861 5.11827 6.56286L4.32327 2.69141H2.5C2.08579 2.69141 1.75 2.35562 1.75 1.94141Z" fill="#F26552"/>
<path fill-rule="evenodd" clip-rule="evenodd" d="M17.5468 21.5046C17.5425 20.8591 18.0664 20.3418 18.7037 20.3418C19.3441 20.3418 19.8618 20.8595 19.8649 21.4971L19.865 21.5009C19.865 22.1408 19.3459 22.6599 18.7059 22.6599C18.0672 22.6599 17.5488 22.1428 17.5468 21.5046ZM18.0764 21.503L17.5469 21.5083C17.5469 21.507 17.5468 21.5058 17.5468 21.5046C17.5468 21.5033 17.5468 21.5021 17.5468 21.5009H18.0749C18.0754 21.5016 18.0759 21.5023 18.0764 21.503ZM19.0468 21.5012L18.365 21.5046C18.3659 21.6907 18.5169 21.8418 18.7037 21.8418C18.4413 21.8418 18.2104 21.7071 18.0764 21.503L18.2968 21.5009H18.0749M19.0468 21.5012L19.0468 21.4934C19.0429 21.3084 18.8919 21.1599 18.7059 21.1599C18.7051 21.1599 18.7044 21.1599 18.7037 21.1599C18.5165 21.1611 18.3653 21.3128 18.365 21.5002C18.365 21.5004 18.365 21.5 18.365 21.5002L19.0468 21.5012C19.0468 21.5011 19.0468 21.5013 19.0468 21.5012Z" fill="#EE7767"/>
<path fill-rule="evenodd" clip-rule="evenodd" d="M17.5468 21.5046C17.5425 20.8591 18.0664 20.3418 18.7037 20.3418C19.3441 20.3418 19.8618 20.8595 19.8649 21.4971L19.865 21.5009C19.865 22.1408 19.3459 22.6599 18.7059 22.6599C18.0672 22.6599 17.5488 22.1428 17.5468 21.5046ZM18.0764 21.503L17.5469 21.5083C17.5469 21.507 17.5468 21.5058 17.5468 21.5046C17.5468 21.5033 17.5468 21.5021 17.5468 21.5009H18.0749C18.0754 21.5016 18.0759 21.5023 18.0764 21.503ZM19.0468 21.5012L18.365 21.5046C18.3659 21.6907 18.5169 21.8418 18.7037 21.8418C18.4413 21.8418 18.2104 21.7071 18.0764 21.503L18.2968 21.5009H18.0749M19.0468 21.5012L19.0468 21.4934C19.0429 21.3084 18.8919 21.1599 18.7059 21.1599C18.7051 21.1599 18.7044 21.1599 18.7037 21.1599C18.5165 21.1611 18.3653 21.3128 18.365 21.5002C18.365 21.5004 18.365 21.5 18.365 21.5002L19.0468 21.5012C19.0468 21.5011 19.0468 21.5013 19.0468 21.5012Z" fill="#F26552"/>
<path fill-rule="evenodd" clip-rule="evenodd" d="M7.48855 21.4989C7.4862 20.8552 8.0093 20.3398 8.64539 20.3398C9.28648 20.3398 9.80556 20.8589 9.80556 21.5C9.80556 22.14 9.28648 22.6591 8.6465 22.6591C8.01173 22.6591 7.48621 22.1451 7.48855 21.4989Z" fill="#EE7767"/>
<path fill-rule="evenodd" clip-rule="evenodd" d="M7.48855 21.4989C7.4862 20.8552 8.0093 20.3398 8.64539 20.3398C9.28648 20.3398 9.80556 20.8589 9.80556 21.5C9.80556 22.14 9.28648 22.6591 8.6465 22.6591C8.01173 22.6591 7.48621 22.1451 7.48855 21.4989Z" fill="#F26552"/>
</svg>
