<svg width="24" height="24" viewBox="0 0 24 24" fill="none" xmlns="http://www.w3.org/2000/svg">
<path fill-rule="evenodd" clip-rule="evenodd" d="M2.75 4.5C2.75 3.5335 3.5335 2.75 4.5 2.75H9.5C10.4665 2.75 11.25 3.5335 11.25 4.5V9.5C11.25 10.4665 10.4665 11.25 9.5 11.25H4.5C3.5335 11.25 2.75 10.4665 2.75 9.5V4.5ZM4.5 4.25C4.36193 4.25 4.25 4.36193 4.25 4.5V9.5C4.25 9.63807 4.36193 9.75 4.5 9.75H9.5C9.63807 9.75 9.75 9.63807 9.75 9.5V4.5C9.75 4.36193 9.63807 4.25 9.5 4.25H4.5Z" fill="#323233"/>
<path fill-rule="evenodd" clip-rule="evenodd" d="M2.75 14.5C2.75 13.5335 3.5335 12.75 4.5 12.75H9.5C10.4665 12.75 11.25 13.5335 11.25 14.5V19.5C11.25 20.4665 10.4665 21.25 9.5 21.25H4.5C3.5335 21.25 2.75 20.4665 2.75 19.5V14.5ZM4.5 14.25C4.36193 14.25 4.25 14.3619 4.25 14.5V19.5C4.25 19.6381 4.36193 19.75 4.5 19.75H9.5C9.63807 19.75 9.75 19.6381 9.75 19.5V14.5C9.75 14.3619 9.63807 14.25 9.5 14.25H4.5Z" fill="#323233"/>
<path fill-rule="evenodd" clip-rule="evenodd" d="M12.75 4.5C12.75 3.5335 13.5335 2.75 14.5 2.75H19.5C20.4665 2.75 21.25 3.5335 21.25 4.5V9.5C21.25 10.4665 20.4665 11.25 19.5 11.25H14.5C13.5335 11.25 12.75 10.4665 12.75 9.5V4.5ZM14.5 4.25C14.3619 4.25 14.25 4.36193 14.25 4.5V9.5C14.25 9.63807 14.3619 9.75 14.5 9.75H19.5C19.6381 9.75 19.75 9.63807 19.75 9.5V4.5C19.75 4.36193 19.6381 4.25 19.5 4.25H14.5Z" fill="#323233"/>
<path fill-rule="evenodd" clip-rule="evenodd" d="M12.75 14.5C12.75 13.5335 13.5335 12.75 14.5 12.75H19.5C20.4665 12.75 21.25 13.5335 21.25 14.5V19.5C21.25 20.4665 20.4665 21.25 19.5 21.25H14.5C13.5335 21.25 12.75 20.4665 12.75 19.5V14.5ZM14.5 14.25C14.3619 14.25 14.25 14.3619 14.25 14.5V19.5C14.25 19.6381 14.3619 19.75 14.5 19.75H19.5C19.6381 19.75 19.75 19.6381 19.75 19.5V14.5C19.75 14.3619 19.6381 14.25 19.5 14.25H14.5Z" fill="#323233"/>
</svg>
