<svg width="40" height="40" viewBox="0 0 40 40" fill="none" xmlns="http://www.w3.org/2000/svg">
<path fill-rule="evenodd" clip-rule="evenodd" d="M32.3301 13.9187C33.2636 15.8101 33.7494 17.8908 33.75 20C33.7506 22.415 33.1151 24.7875 31.9075 26.8789C30.6999 28.9702 28.9627 30.7066 26.8709 31.9134C24.7791 33.1201 22.4063 33.7547 19.9913 33.7532C17.5764 33.7516 15.2044 33.1141 13.1141 31.9047C12.9242 31.7945 12.7086 31.7363 12.4891 31.7359C12.3546 31.736 12.221 31.7582 12.0938 31.8016L7.19885 33.4336C6.80795 33.564 6.43603 33.1921 6.56637 32.8012L8.19844 27.9063C8.2546 27.7383 8.27445 27.5604 8.25668 27.3842C8.2389 27.2081 8.1839 27.0377 8.09531 26.8844C7.03988 25.0583 6.4187 23.0138 6.27984 20.9092C6.14097 18.8046 6.48813 16.6963 7.29447 14.7473C8.10081 12.7983 9.34471 11.061 10.9299 9.66968C12.5151 8.27838 14.3992 7.2704 16.4363 6.72375C18.4734 6.1771 20.609 6.10641 22.6778 6.51717C24.7466 6.92793 26.6932 7.80912 28.3669 9.09256C30.0406 10.376 31.3967 12.0273 32.3301 13.9187ZM13.8792 18.7951C14.1176 18.6358 14.398 18.5508 14.6847 18.5508C15.0693 18.5508 15.4381 18.7035 15.71 18.9755C15.9819 19.2474 16.1346 19.6162 16.1346 20.0007C16.1346 20.2875 16.0496 20.5678 15.8903 20.8062C15.731 21.0447 15.5045 21.2305 15.2396 21.3403C14.9746 21.45 14.6831 21.4787 14.4019 21.4228C14.1206 21.3668 13.8623 21.2287 13.6595 21.026C13.4567 20.8232 13.3186 20.5648 13.2627 20.2836C13.2067 20.0023 13.2354 19.7108 13.3452 19.4458C13.4549 19.1809 13.6408 18.9545 13.8792 18.7951ZM21.2067 20.8062C21.366 20.5678 21.451 20.2875 21.451 20.0007C21.451 19.6162 21.2983 19.2474 21.0264 18.9755C20.7544 18.7035 20.3856 18.5508 20.0011 18.5508C19.7143 18.5508 19.434 18.6358 19.1956 18.7951C18.9571 18.9545 18.7713 19.1809 18.6616 19.4458C18.5518 19.7108 18.5231 20.0023 18.579 20.2836C18.635 20.5648 18.7731 20.8232 18.9759 21.026C19.1786 21.2287 19.437 21.3668 19.7182 21.4228C19.9995 21.4787 20.291 21.45 20.556 21.3403C20.8209 21.2305 21.0474 21.0447 21.2067 20.8062ZM25.3175 18.5508C25.0307 18.5508 24.7504 18.6358 24.512 18.7951C24.2735 18.9545 24.0877 19.1809 23.9779 19.4458C23.8682 19.7108 23.8395 20.0023 23.8954 20.2836C23.9514 20.5648 24.0895 20.8232 24.2922 21.026C24.495 21.2287 24.7534 21.3668 25.0346 21.4228C25.3159 21.4787 25.6074 21.45 25.8723 21.3403C26.1373 21.2305 26.3637 21.0447 26.5231 20.8062C26.6824 20.5678 26.7674 20.2875 26.7674 20.0007C26.7674 19.6162 26.6146 19.2474 26.3427 18.9755C26.0708 18.7035 25.702 18.5508 25.3175 18.5508Z" fill="white"/>
</svg>
