<svg width="20" height="24" viewBox="0 0 20 24" fill="none" xmlns="http://www.w3.org/2000/svg">
<path fill-rule="evenodd" clip-rule="evenodd" d="M2.3335 12C2.3335 11.0739 2.99134 10 4.16683 10C5.34232 10 6.00016 11.0739 6.00016 12C6.00016 12.9261 5.34232 14 4.16683 14C2.99134 14 2.3335 12.9261 2.3335 12ZM8.16683 12C8.16683 11.0739 8.82467 10 10.0002 10C11.1757 10 11.8335 11.0739 11.8335 12C11.8335 12.9261 11.1757 14 10.0002 14C8.82467 14 8.16683 12.9261 8.16683 12ZM14.0002 12C14.0002 11.0739 14.658 10 15.8335 10C17.009 10 17.6668 11.0739 17.6668 12C17.6668 12.9261 17.009 14 15.8335 14C14.658 14 14.0002 12.9261 14.0002 12Z" fill="#929AA1"/>
</svg>
