<svg width="16" height="16" viewBox="0 0 16 16" fill="none" xmlns="http://www.w3.org/2000/svg">
<path fill-rule="evenodd" clip-rule="evenodd" d="M0.583496 3.00917C0.583496 1.66942 1.66958 0.583332 3.00933 0.583332H12.991C14.3307 0.583332 15.4168 1.66942 15.4168 3.00917C15.4168 3.83585 15.1031 4.63174 14.5391 5.23609L11.0863 8.93543C10.8703 9.16689 10.7502 9.47171 10.7502 9.78833V12.0486C10.7502 12.7115 10.3757 13.3174 9.78279 13.6139L7.78279 14.6139C6.61921 15.1957 5.25016 14.3495 5.25016 13.0486V9.78832C5.25016 9.47171 5.13001 9.16689 4.91398 8.93543L1.46127 5.23609C0.897204 4.63174 0.583496 3.83585 0.583496 3.00917ZM3.00933 2.08333C2.49801 2.08333 2.0835 2.49784 2.0835 3.00917C2.0835 3.45591 2.25303 3.88602 2.55785 4.21261L6.01056 7.91195C6.48584 8.42117 6.75016 9.09177 6.75016 9.78832V13.0486C6.75016 13.2345 6.94574 13.3554 7.11197 13.2722L9.11197 12.2722C9.19666 12.2299 9.25016 12.1433 9.25016 12.0486V9.78833C9.25016 9.09177 9.51449 8.42117 9.98976 7.91195L13.4425 4.21261C13.7473 3.88602 13.9168 3.45591 13.9168 3.00917C13.9168 2.49784 13.5023 2.08333 12.991 2.08333H3.00933Z" fill="white"/>
</svg>
