<svg width="24" height="24" viewBox="0 0 24 24" fill="none" xmlns="http://www.w3.org/2000/svg">
<path fill-rule="evenodd" clip-rule="evenodd" d="M11.9361 3.02514C11.9295 3.02784 11.9055 3.03912 11.8538 3.07365C11.7694 3.13003 11.6622 3.21283 11.4781 3.35601L4.6958 8.63114C4.2089 9.00984 4.08267 9.11627 3.99497 9.23484C3.90456 9.35708 3.8372 9.4948 3.79622 9.64121C3.75647 9.78323 3.74995 9.94822 3.74995 10.5651V17.8C3.74995 18.3724 3.75054 18.7566 3.77471 19.0525C3.79817 19.3396 3.84005 19.4769 3.88619 19.5675C4.00604 19.8027 4.19726 19.9939 4.43246 20.1137C4.52303 20.1599 4.66031 20.2018 4.94743 20.2252C5.24331 20.2494 5.62752 20.25 6.19995 20.25H17.8C18.3724 20.25 18.7566 20.2494 19.0525 20.2252C19.3396 20.2018 19.4769 20.1599 19.5674 20.1137C19.8026 19.9939 19.9939 19.8027 20.1137 19.5675C20.1599 19.4769 20.2017 19.3396 20.2252 19.0525C20.2494 18.7566 20.25 18.3724 20.25 17.8V10.5651C20.25 9.94822 20.2434 9.78323 20.2037 9.64121C20.1627 9.49479 20.0953 9.35708 20.0049 9.23484C19.9172 9.11627 19.791 9.00984 19.3041 8.63114L12.5218 3.35601C12.3377 3.21283 12.2305 3.13003 12.1461 3.07365C12.0944 3.03912 12.0704 3.02784 12.0638 3.02514C12.022 3.01408 11.978 3.01408 11.9361 3.02514ZM12.0619 3.02442C12.0618 3.02439 12.0627 3.02468 12.0638 3.02514ZM11.9361 3.02514C11.9372 3.02468 11.9381 3.02439 11.938 3.02442ZM11.5426 1.57767C11.8421 1.49657 12.1578 1.49657 12.4573 1.57767C12.8026 1.67115 13.096 1.9008 13.3719 2.11667C13.3956 2.13525 13.4192 2.15371 13.4427 2.17198L20.225 7.44711C20.2478 7.46486 20.2704 7.48237 20.2926 7.49967C20.6802 7.80064 20.985 8.03739 21.2109 8.34287C21.4098 8.6118 21.558 8.91477 21.6482 9.23689C21.7506 9.60278 21.7503 9.98875 21.75 10.4794C21.75 10.5076 21.75 10.5362 21.75 10.5651V17.8304C21.75 18.3646 21.75 18.8104 21.7202 19.1747C21.6892 19.5545 21.6221 19.9112 21.4502 20.2485C21.1866 20.7659 20.7659 21.1866 20.2484 21.4503C19.9112 21.6221 19.5545 21.6892 19.1746 21.7202C18.8104 21.75 18.3646 21.75 17.8304 21.75H6.1695C5.63535 21.75 5.18951 21.75 4.82528 21.7202C4.4454 21.6892 4.08874 21.6221 3.75148 21.4503C3.23403 21.1866 2.81334 20.7659 2.54969 20.2485C2.37784 19.9112 2.31073 19.5545 2.27969 19.1747C2.24993 18.8104 2.24994 18.3646 2.24995 17.8304L2.24995 10.5651C2.24995 10.5361 2.24993 10.5076 2.24991 10.4794C2.24958 9.98874 2.24932 9.60278 2.35174 9.23689C2.44191 8.91477 2.59008 8.6118 2.78899 8.34287C3.01493 8.03739 3.31975 7.80064 3.70726 7.49966C3.72953 7.48237 3.75207 7.46486 3.77489 7.44711L10.5572 2.17198C10.5807 2.15371 10.6043 2.13524 10.628 2.11667C10.9039 1.9008 11.1973 1.67115 11.5426 1.57767ZM7.24995 17C7.24995 16.5858 7.58574 16.25 7.99995 16.25H16C16.4142 16.25 16.75 16.5858 16.75 17C16.75 17.4142 16.4142 17.75 16 17.75H7.99995C7.58574 17.75 7.24995 17.4142 7.24995 17Z" fill="#323233"/>
</svg>
