<svg width="24" height="24" viewBox="0 0 24 24" fill="none" xmlns="http://www.w3.org/2000/svg">
<path d="M9.37969 1.93606C11.0078 1.02131 12.9918 1.02131 14.6199 1.93606L20.6561 5.32669C22.1141 6.14588 22.1141 8.25359 20.6561 9.07278L19.576 9.67825L20.201 10.0171L20.2117 10.023L20.6561 10.273C22.1141 11.0922 22.1141 13.1989 20.6561 14.0181L19.6854 14.563L20.45 14.9478C21.9831 15.7195 22.0316 17.8993 20.5359 18.7398L14.6199 22.063C12.9918 22.9778 11.0078 22.9778 9.37969 22.063L3.55059 18.7886C2.02934 17.9339 2.11133 15.7057 3.69415 14.9683L4.42657 14.6265L3.34356 14.0181C1.88549 13.1989 1.8855 11.0922 3.34356 10.273L3.7879 10.023L4.40509 9.66848L3.34356 9.07278C1.88548 8.25358 1.88548 6.14588 3.34356 5.32669L9.37969 1.93606ZM14.6199 17.4097C12.9918 18.3244 11.0078 18.3244 9.37969 17.4097L6.03692 15.5318L4.32794 16.3277C3.85432 16.5483 3.82762 17.2229 4.28497 17.48L10.115 20.7554C11.2869 21.4137 12.7128 21.4137 13.8846 20.7554L19.8006 17.4322C20.2501 17.1796 20.2346 16.5189 19.7752 16.2876L18.1082 15.4488L14.6199 17.4097ZM4.52813 11.3277L4.52325 11.3306L4.07794 11.5806C3.64053 11.8266 3.64053 12.4645 4.07794 12.7105L10.115 16.1021C11.2868 16.7604 12.7128 16.7604 13.8846 16.1021L19.9217 12.7105C20.3591 12.4645 20.3591 11.8266 19.9217 11.5806L19.4871 11.3365L18.0301 10.5474L14.6199 12.4644C12.9918 13.3791 11.0078 13.3791 9.37969 12.4644L5.92852 10.5249L4.52813 11.3277ZM13.8846 3.24368C12.7128 2.58536 11.2869 2.58536 10.115 3.24368L4.07794 6.63528C3.64056 6.88129 3.64049 7.51922 4.07794 7.76516L10.115 11.1568C11.2868 11.815 12.7128 11.815 13.8846 11.1568L19.9217 7.76516C20.3591 7.51922 20.3591 6.88129 19.9217 6.63528L13.8846 3.24368Z" fill="#717A80"/>
</svg>
