<svg width="24" height="24" viewBox="0 0 24 24" fill="none" xmlns="http://www.w3.org/2000/svg">
<path fill-rule="evenodd" clip-rule="evenodd" d="M2.75 5.5C2.75 4.5335 3.5335 3.75 4.5 3.75H19.5C20.4665 3.75 21.25 4.5335 21.25 5.5V9.5C21.25 10.4665 20.4665 11.25 19.5 11.25H4.5C3.5335 11.25 2.75 10.4665 2.75 9.5V5.5ZM4.5 5.25C4.36193 5.25 4.25 5.36193 4.25 5.5V9.5C4.25 9.63807 4.36193 9.75 4.5 9.75H19.5C19.6381 9.75 19.75 9.63807 19.75 9.5V5.5C19.75 5.36193 19.6381 5.25 19.5 5.25H4.5Z" fill="#929AA1"/>
<path fill-rule="evenodd" clip-rule="evenodd" d="M2.75 14.5C2.75 13.5335 3.5335 12.75 4.5 12.75H19.5C20.4665 12.75 21.25 13.5335 21.25 14.5V18.5C21.25 19.4665 20.4665 20.25 19.5 20.25H4.5C3.5335 20.25 2.75 19.4665 2.75 18.5V14.5ZM4.5 14.25C4.36193 14.25 4.25 14.3619 4.25 14.5V18.5C4.25 18.6381 4.36193 18.75 4.5 18.75H19.5C19.6381 18.75 19.75 18.6381 19.75 18.5V14.5C19.75 14.3619 19.6381 14.25 19.5 14.25H4.5Z" fill="#929AA1"/>
</svg>
