<svg width="16" height="20" viewBox="0 0 16 20" fill="none" xmlns="http://www.w3.org/2000/svg">
<path fill-rule="evenodd" clip-rule="evenodd" d="M8 0.833336C3.85786 0.833336 0.5 4.1912 0.5 8.33333C0.5 10.9326 1.95322 12.8046 3.44054 14.3537C3.79942 14.7275 4.16952 15.0914 4.52733 15.4433L4.57385 15.4891C4.94936 15.8584 5.31051 16.2146 5.65071 16.5731C6.33459 17.2939 6.89299 17.9827 7.25464 18.706C7.3958 18.9883 7.68436 19.1667 8 19.1667C8.31564 19.1667 8.60419 18.9883 8.74536 18.706C9.10701 17.9827 9.66541 17.2939 10.3493 16.5731C10.6895 16.2146 11.0506 15.8584 11.4261 15.4891L11.4726 15.4434C11.8304 15.0915 12.2006 14.7275 12.5595 14.3537C14.0468 12.8046 15.5 10.9326 15.5 8.33333C15.5 4.1912 12.1421 0.833336 8 0.833336ZM8 11.6667C9.84095 11.6667 11.3333 10.1743 11.3333 8.33333C11.3333 6.49239 9.84095 5 8 5C6.15905 5 4.66667 6.49239 4.66667 8.33333C4.66667 10.1743 6.15905 11.6667 8 11.6667Z" fill="#717A80"/>
</svg>
