<svg width="24" height="24" viewBox="0 0 24 24" fill="none" xmlns="http://www.w3.org/2000/svg">
<path fill-rule="evenodd" clip-rule="evenodd" d="M4.53812 3.12091C5.73525 1.92378 7.67413 1.97934 8.86815 3.17336L10.8612 5.16645C12.0553 6.36047 12.1108 8.29935 10.9137 9.49648L10.6373 9.77286C10.4291 9.98109 10.4066 10.3187 10.6046 10.5586C11.0217 11.0641 11.4691 11.5648 11.9522 12.0479C12.4353 12.5309 12.936 12.9784 13.4415 13.3955C13.6813 13.5934 14.019 13.571 14.2272 13.3627L14.5036 13.0864C15.7007 11.8892 17.6396 11.9448 18.8336 13.1388L20.8267 15.1319C22.0207 16.3259 22.0763 18.2648 20.8791 19.4619L19.5924 20.7487C18.2846 22.0564 16.1453 21.9506 14.0638 21.1869C11.9173 20.3993 9.52182 18.816 7.35292 16.6471C5.18403 14.4782 3.60073 12.0828 2.81317 9.93628C2.04946 7.85479 1.94364 5.7154 3.25135 4.40768L4.53812 3.12091ZM7.80749 4.23402C7.16692 3.59345 6.1783 3.60205 5.59878 4.18157L4.31202 5.46834C4.31202 5.46834 4.31202 5.46834 4.31202 5.46834C3.66542 6.11494 3.50061 7.45517 4.22138 9.4196C4.91829 11.319 6.36293 13.5358 8.41358 15.5865C10.4642 17.6371 12.681 19.0818 14.5804 19.7787C16.5449 20.4994 17.8851 20.3346 18.5317 19.688L19.8185 18.4013C20.398 17.8217 20.4066 16.8331 19.766 16.1926L17.7729 14.1995C17.1324 13.5589 16.1437 13.5675 15.5642 14.147L15.2878 14.4234C14.5368 15.1744 13.327 15.2458 12.4868 14.5524C11.9504 14.1098 11.4134 13.6304 10.8915 13.1085C10.3696 12.5866 9.89021 12.0496 9.44761 11.5133C8.75422 10.673 8.82563 9.46321 9.57664 8.7122L9.85303 8.43582C10.4325 7.8563 10.4411 6.86768 9.80058 6.22711L7.80749 4.23402Z" fill="#717A80"/>
</svg>
