<svg width="24" height="24" viewBox="0 0 24 24" fill="none" xmlns="http://www.w3.org/2000/svg">
<path fill-rule="evenodd" clip-rule="evenodd" d="M12.3793 4.75994C11.0441 4.68996 9.71548 4.99059 8.54045 5.62858C7.36542 6.26657 6.3897 7.21707 5.72117 8.375C5.68011 8.44611 5.62917 8.50795 5.57109 8.55979L8.15123 7.96414C8.55483 7.87096 8.95754 8.12261 9.05072 8.52621C9.14389 8.92981 8.89225 9.33252 8.48865 9.4257L5.32911 10.1551C4.38738 10.3725 3.44771 9.78534 3.23031 8.84361L2.50089 5.68407C2.40772 5.28048 2.65937 4.87776 3.06296 4.78459C3.46656 4.69141 3.86928 4.94306 3.96245 5.34666L4.46966 7.54369C5.27491 6.18299 6.43417 5.06535 7.82471 4.31035C9.24286 3.54036 10.8463 3.17754 12.4578 3.26199C14.0693 3.34645 15.626 3.87489 16.9559 4.7889C18.2858 5.70291 19.337 6.96687 19.9934 8.44106C20.1618 8.81946 19.9917 9.26279 19.6133 9.43127C19.2349 9.59974 18.7915 9.42957 18.6231 9.05116C18.0792 7.8297 17.2082 6.78241 16.1063 6.02509C15.0044 5.26777 13.7145 4.82991 12.3793 4.75994ZM18.6706 13.8448C19.6124 13.6274 20.552 14.2146 20.7694 15.1563L21.4988 18.3158C21.592 18.7194 21.3404 19.1221 20.9368 19.2153C20.5332 19.3085 20.1305 19.0568 20.0373 18.6532L19.5301 16.4562C18.7248 17.8169 17.5656 18.9345 16.175 19.6895C14.7569 20.4595 13.1534 20.8224 11.542 20.7379C9.93047 20.6534 8.37373 20.125 7.04384 19.211C5.71395 18.297 4.66272 17.033 4.00637 15.5588C3.83789 15.1804 4.00807 14.7371 4.38648 14.5686C4.76488 14.4002 5.20821 14.5703 5.37669 14.9487C5.92052 16.1702 6.79154 17.2175 7.89345 17.9748C8.99535 18.7321 10.2852 19.17 11.6205 19.24C12.9557 19.3099 14.2843 19.0093 15.4593 18.3713C16.6343 17.7333 17.61 16.7828 18.2786 15.6249C18.3196 15.5538 18.3706 15.4919 18.4287 15.4401L15.8485 16.0358C15.4449 16.1289 15.0422 15.8773 14.949 15.4737C14.8559 15.0701 15.1075 14.6674 15.5111 14.5742L18.6706 13.8448Z" fill="#929AA1"/>
</svg>
