<svg width="16" height="16" viewBox="0 0 16 16" fill="none" xmlns="http://www.w3.org/2000/svg">
<g clip-path="url(#clip0_8631_161652)">
<path fill-rule="evenodd" clip-rule="evenodd" d="M6.91723 2.10019C6.87017 2.08889 6.8115 2.08407 6.44968 2.08407L3.46667 2.08407C3.08093 2.08407 2.83673 2.08465 2.65202 2.09975C2.47606 2.11412 2.4211 2.13784 2.40184 2.14765C2.29208 2.20358 2.20284 2.29282 2.14692 2.40258C2.13711 2.42183 2.11339 2.47679 2.09901 2.65275C2.08392 2.83746 2.08334 3.08166 2.08334 3.4674L2.08334 6.45041C2.08334 6.81223 2.08816 6.8709 2.09946 6.91796C2.11375 6.97748 2.13731 7.03438 2.1693 7.08658C2.19458 7.12784 2.23266 7.17273 2.48851 7.42858L7.60093 12.541C8.00569 12.9458 8.27779 13.217 8.5041 13.4092C8.72371 13.5956 8.8504 13.6631 8.94707 13.6945C9.19812 13.776 9.46856 13.776 9.71961 13.6945C9.81627 13.6631 9.94296 13.5956 10.1626 13.4092C10.3889 13.217 10.661 12.9458 11.0658 12.541L12.5403 11.0665C12.945 10.6617 13.2163 10.3896 13.4084 10.1633C13.5949 9.94369 13.6623 9.81701 13.6937 9.72034C13.7753 9.46929 13.7753 9.19885 13.6937 8.9478C13.6623 8.85113 13.5949 8.72445 13.4084 8.50483C13.2163 8.27852 12.945 8.00643 12.5403 7.60166L7.42785 2.48924C7.172 2.23339 7.12711 2.19532 7.08584 2.17003C7.03365 2.13805 6.97675 2.11448 6.91723 2.10019ZM6.50798 0.584027C6.77605 0.583726 7.02503 0.583447 7.2674 0.641633C7.47997 0.692668 7.68319 0.776844 7.86959 0.89107C8.08211 1.0213 8.25797 1.19756 8.44731 1.38732C8.46097 1.40101 8.47469 1.41477 8.48851 1.42858L13.6224 6.56252C14.0002 6.94022 14.3154 7.25547 14.5519 7.53407C14.7986 7.82463 15.0033 8.12428 15.1203 8.48427C15.2998 9.03659 15.2998 9.63155 15.1203 10.1839C15.0033 10.5439 14.7986 10.8435 14.5519 11.1341C14.3154 11.4127 14.0001 11.7279 13.6224 12.1056L12.1049 13.6232C11.7272 14.0009 11.4119 14.3162 11.1333 14.5527C10.8428 14.7993 10.5431 15.0041 10.1831 15.121C9.63082 15.3005 9.03586 15.3005 8.48354 15.121C8.12355 15.0041 7.8239 14.7993 7.53333 14.5527C7.25474 14.3162 6.93948 14.0009 6.56179 13.6232L1.42785 8.48924C1.41403 8.47542 1.40028 8.4617 1.38659 8.44804C1.19683 8.2587 1.02057 8.08284 0.890338 7.87032C0.776112 7.68392 0.691936 7.48071 0.640901 7.26813C0.582714 7.02577 0.582994 6.77678 0.583295 6.50871C0.583317 6.48938 0.583338 6.46995 0.583338 6.45041L0.583339 3.4674C0.583339 3.45797 0.583338 3.44858 0.583338 3.43921C0.583323 3.08995 0.58331 2.78377 0.603995 2.5306C0.62595 2.26188 0.674896 1.98755 0.810409 1.72159C1.01014 1.32959 1.32885 1.01088 1.72086 0.811141C1.98682 0.675628 2.26115 0.626682 2.52987 0.604727C2.78304 0.584042 3.08922 0.584055 3.43848 0.58407C3.44785 0.58407 3.45724 0.584071 3.46667 0.584071L6.44968 0.584071C6.46922 0.584071 6.48865 0.584049 6.50798 0.584027ZM4.25001 5.33407C4.25001 4.73576 4.73503 4.25074 5.33334 4.25074C5.93165 4.25074 6.41667 4.73576 6.41667 5.33407C6.41667 5.93238 5.93165 6.4174 5.33334 6.4174C4.73503 6.4174 4.25001 5.93238 4.25001 5.33407Z" fill="#EE7767"/>
<path fill-rule="evenodd" clip-rule="evenodd" d="M6.91723 2.10019C6.87017 2.08889 6.8115 2.08407 6.44968 2.08407L3.46667 2.08407C3.08093 2.08407 2.83673 2.08465 2.65202 2.09975C2.47606 2.11412 2.4211 2.13784 2.40184 2.14765C2.29208 2.20358 2.20284 2.29282 2.14692 2.40258C2.13711 2.42183 2.11339 2.47679 2.09901 2.65275C2.08392 2.83746 2.08334 3.08166 2.08334 3.4674L2.08334 6.45041C2.08334 6.81223 2.08816 6.8709 2.09946 6.91796C2.11375 6.97748 2.13731 7.03438 2.1693 7.08658C2.19458 7.12784 2.23266 7.17273 2.48851 7.42858L7.60093 12.541C8.00569 12.9458 8.27779 13.217 8.5041 13.4092C8.72371 13.5956 8.8504 13.6631 8.94707 13.6945C9.19812 13.776 9.46856 13.776 9.71961 13.6945C9.81627 13.6631 9.94296 13.5956 10.1626 13.4092C10.3889 13.217 10.661 12.9458 11.0658 12.541L12.5403 11.0665C12.945 10.6617 13.2163 10.3896 13.4084 10.1633C13.5949 9.94369 13.6623 9.81701 13.6937 9.72034C13.7753 9.46929 13.7753 9.19885 13.6937 8.9478C13.6623 8.85113 13.5949 8.72445 13.4084 8.50483C13.2163 8.27852 12.945 8.00643 12.5403 7.60166L7.42785 2.48924C7.172 2.23339 7.12711 2.19532 7.08584 2.17003C7.03365 2.13805 6.97675 2.11448 6.91723 2.10019ZM6.50798 0.584027C6.77605 0.583726 7.02503 0.583447 7.2674 0.641633C7.47997 0.692668 7.68319 0.776844 7.86959 0.89107C8.08211 1.0213 8.25797 1.19756 8.44731 1.38732C8.46097 1.40101 8.47469 1.41477 8.48851 1.42858L13.6224 6.56252C14.0002 6.94022 14.3154 7.25547 14.5519 7.53407C14.7986 7.82463 15.0033 8.12428 15.1203 8.48427C15.2998 9.03659 15.2998 9.63155 15.1203 10.1839C15.0033 10.5439 14.7986 10.8435 14.5519 11.1341C14.3154 11.4127 14.0001 11.7279 13.6224 12.1056L12.1049 13.6232C11.7272 14.0009 11.4119 14.3162 11.1333 14.5527C10.8428 14.7993 10.5431 15.0041 10.1831 15.121C9.63082 15.3005 9.03586 15.3005 8.48354 15.121C8.12355 15.0041 7.8239 14.7993 7.53333 14.5527C7.25474 14.3162 6.93948 14.0009 6.56179 13.6232L1.42785 8.48924C1.41403 8.47542 1.40028 8.4617 1.38659 8.44804C1.19683 8.2587 1.02057 8.08284 0.890338 7.87032C0.776112 7.68392 0.691936 7.48071 0.640901 7.26813C0.582714 7.02577 0.582994 6.77678 0.583295 6.50871C0.583317 6.48938 0.583338 6.46995 0.583338 6.45041L0.583339 3.4674C0.583339 3.45797 0.583338 3.44858 0.583338 3.43921C0.583323 3.08995 0.58331 2.78377 0.603995 2.5306C0.62595 2.26188 0.674896 1.98755 0.810409 1.72159C1.01014 1.32959 1.32885 1.01088 1.72086 0.811141C1.98682 0.675628 2.26115 0.626682 2.52987 0.604727C2.78304 0.584042 3.08922 0.584055 3.43848 0.58407C3.44785 0.58407 3.45724 0.584071 3.46667 0.584071L6.44968 0.584071C6.46922 0.584071 6.48865 0.584049 6.50798 0.584027ZM4.25001 5.33407C4.25001 4.73576 4.73503 4.25074 5.33334 4.25074C5.93165 4.25074 6.41667 4.73576 6.41667 5.33407C6.41667 5.93238 5.93165 6.4174 5.33334 6.4174C4.73503 6.4174 4.25001 5.93238 4.25001 5.33407Z" fill="#F26552"/>
</g>
<defs>
<clipPath id="clip0_8631_161652">
<rect width="16" height="16" fill="white"/>
</clipPath>
</defs>
</svg>
