<svg width="20" height="20" viewBox="0 0 20 20" fill="none" xmlns="http://www.w3.org/2000/svg">
<path fill-rule="evenodd" clip-rule="evenodd" d="M9.29289 1.79289C9.68342 1.40237 10.3166 1.40237 10.7071 1.79289L14.8738 5.95956C15.2643 6.35008 15.2643 6.98325 14.8738 7.37377C14.4832 7.7643 13.8501 7.7643 13.4596 7.37377L11 4.91421V12.5C11 13.0523 10.5523 13.5 10 13.5C9.44772 13.5 9 13.0523 9 12.5V4.91421L6.54044 7.37377C6.14992 7.7643 5.51675 7.7643 5.12623 7.37377C4.7357 6.98325 4.7357 6.35008 5.12623 5.95956L9.29289 1.79289ZM2.5 11.5C3.05229 11.5 3.5 11.9477 3.5 12.5V13.5C3.5 14.2166 3.50078 14.6938 3.53074 15.0606C3.55975 15.4156 3.61105 15.5781 3.66349 15.681C3.8073 15.9632 4.03677 16.1927 4.31902 16.3365C4.42194 16.389 4.5844 16.4403 4.93944 16.4693C5.30615 16.4992 5.78343 16.5 6.5 16.5H13.5C14.2166 16.5 14.6939 16.4992 15.0606 16.4693C15.4156 16.4403 15.5781 16.389 15.681 16.3365C15.9632 16.1927 16.1927 15.9632 16.3365 15.681C16.389 15.5781 16.4403 15.4156 16.4693 15.0606C16.4992 14.6938 16.5 14.2166 16.5 13.5V12.5C16.5 11.9477 16.9477 11.5 17.5 11.5C18.0523 11.5 18.5 11.9477 18.5 12.5V13.5402C18.5 14.206 18.5 14.7656 18.4626 15.2234C18.4235 15.7021 18.3386 16.1571 18.1185 16.589C17.783 17.2475 17.2475 17.783 16.589 18.1185C16.1571 18.3386 15.7021 18.4235 15.2234 18.4626C14.7656 18.5 14.206 18.5 13.5402 18.5H6.45982C5.79396 18.5 5.23444 18.5 4.77657 18.4626C4.29785 18.4235 3.84289 18.3386 3.41103 18.1185C2.75247 17.783 2.21703 17.2475 1.88148 16.589C1.66144 16.1571 1.5765 15.7021 1.53738 15.2234C1.49997 14.7656 1.49999 14.206 1.5 13.5402L1.5 12.5C1.5 11.9477 1.94772 11.5 2.5 11.5Z" fill="#1A73E8"/>
<path fill-rule="evenodd" clip-rule="evenodd" d="M9.29289 1.79289C9.68342 1.40237 10.3166 1.40237 10.7071 1.79289L14.8738 5.95956C15.2643 6.35008 15.2643 6.98325 14.8738 7.37377C14.4832 7.7643 13.8501 7.7643 13.4596 7.37377L11 4.91421V12.5C11 13.0523 10.5523 13.5 10 13.5C9.44772 13.5 9 13.0523 9 12.5V4.91421L6.54044 7.37377C6.14992 7.7643 5.51675 7.7643 5.12623 7.37377C4.7357 6.98325 4.7357 6.35008 5.12623 5.95956L9.29289 1.79289ZM2.5 11.5C3.05229 11.5 3.5 11.9477 3.5 12.5V13.5C3.5 14.2166 3.50078 14.6938 3.53074 15.0606C3.55975 15.4156 3.61105 15.5781 3.66349 15.681C3.8073 15.9632 4.03677 16.1927 4.31902 16.3365C4.42194 16.389 4.5844 16.4403 4.93944 16.4693C5.30615 16.4992 5.78343 16.5 6.5 16.5H13.5C14.2166 16.5 14.6939 16.4992 15.0606 16.4693C15.4156 16.4403 15.5781 16.389 15.681 16.3365C15.9632 16.1927 16.1927 15.9632 16.3365 15.681C16.389 15.5781 16.4403 15.4156 16.4693 15.0606C16.4992 14.6938 16.5 14.2166 16.5 13.5V12.5C16.5 11.9477 16.9477 11.5 17.5 11.5C18.0523 11.5 18.5 11.9477 18.5 12.5V13.5402C18.5 14.206 18.5 14.7656 18.4626 15.2234C18.4235 15.7021 18.3386 16.1571 18.1185 16.589C17.783 17.2475 17.2475 17.783 16.589 18.1185C16.1571 18.3386 15.7021 18.4235 15.2234 18.4626C14.7656 18.5 14.206 18.5 13.5402 18.5H6.45982C5.79396 18.5 5.23444 18.5 4.77657 18.4626C4.29785 18.4235 3.84289 18.3386 3.41103 18.1185C2.75247 17.783 2.21703 17.2475 1.88148 16.589C1.66144 16.1571 1.5765 15.7021 1.53738 15.2234C1.49997 14.7656 1.49999 14.206 1.5 13.5402L1.5 12.5C1.5 11.9477 1.94772 11.5 2.5 11.5Z" fill="#0073CE"/>
<path fill-rule="evenodd" clip-rule="evenodd" d="M9.29289 1.79289C9.68342 1.40237 10.3166 1.40237 10.7071 1.79289L14.8738 5.95956C15.2643 6.35008 15.2643 6.98325 14.8738 7.37377C14.4832 7.7643 13.8501 7.7643 13.4596 7.37377L11 4.91421V12.5C11 13.0523 10.5523 13.5 10 13.5C9.44772 13.5 9 13.0523 9 12.5V4.91421L6.54044 7.37377C6.14992 7.7643 5.51675 7.7643 5.12623 7.37377C4.7357 6.98325 4.7357 6.35008 5.12623 5.95956L9.29289 1.79289ZM2.5 11.5C3.05229 11.5 3.5 11.9477 3.5 12.5V13.5C3.5 14.2166 3.50078 14.6938 3.53074 15.0606C3.55975 15.4156 3.61105 15.5781 3.66349 15.681C3.8073 15.9632 4.03677 16.1927 4.31902 16.3365C4.42194 16.389 4.5844 16.4403 4.93944 16.4693C5.30615 16.4992 5.78343 16.5 6.5 16.5H13.5C14.2166 16.5 14.6939 16.4992 15.0606 16.4693C15.4156 16.4403 15.5781 16.389 15.681 16.3365C15.9632 16.1927 16.1927 15.9632 16.3365 15.681C16.389 15.5781 16.4403 15.4156 16.4693 15.0606C16.4992 14.6938 16.5 14.2166 16.5 13.5V12.5C16.5 11.9477 16.9477 11.5 17.5 11.5C18.0523 11.5 18.5 11.9477 18.5 12.5V13.5402C18.5 14.206 18.5 14.7656 18.4626 15.2234C18.4235 15.7021 18.3386 16.1571 18.1185 16.589C17.783 17.2475 17.2475 17.783 16.589 18.1185C16.1571 18.3386 15.7021 18.4235 15.2234 18.4626C14.7656 18.5 14.206 18.5 13.5402 18.5H6.45982C5.79396 18.5 5.23444 18.5 4.77657 18.4626C4.29785 18.4235 3.84289 18.3386 3.41103 18.1185C2.75247 17.783 2.21703 17.2475 1.88148 16.589C1.66144 16.1571 1.5765 15.7021 1.53738 15.2234C1.49997 14.7656 1.49999 14.206 1.5 13.5402L1.5 12.5C1.5 11.9477 1.94772 11.5 2.5 11.5Z" fill="#327FDA"/>
</svg>
