<svg width="24" height="24" viewBox="0 0 24 24" fill="none" xmlns="http://www.w3.org/2000/svg">
<path fill-rule="evenodd" clip-rule="evenodd" d="M12 3.75C11.138 3.75 10.3114 4.09241 9.7019 4.7019C9.09241 5.3114 8.75 6.13805 8.75 7C8.75 7.86195 9.09241 8.6886 9.7019 9.2981C10.3114 9.90759 11.138 10.25 12 10.25C12.862 10.25 13.6886 9.90759 14.2981 9.2981C14.9076 8.6886 15.25 7.86195 15.25 7C15.25 6.13805 14.9076 5.3114 14.2981 4.7019C13.6886 4.09241 12.862 3.75 12 3.75ZM8.64124 3.64124C9.53204 2.75044 10.7402 2.25 12 2.25C13.2598 2.25 14.468 2.75044 15.3588 3.64124C16.2496 4.53204 16.75 5.74022 16.75 7C16.75 8.25978 16.2496 9.46796 15.3588 10.3588C14.468 11.2496 13.2598 11.75 12 11.75C10.7402 11.75 9.53204 11.2496 8.64124 10.3588C7.75044 9.46796 7.25 8.25978 7.25 7C7.25 5.74022 7.75044 4.53204 8.64124 3.64124ZM6.51992 15.5199C7.97333 14.0665 9.94457 13.25 12 13.25C14.0554 13.25 16.0267 14.0665 17.4801 15.5199C18.9335 16.9733 19.75 18.9446 19.75 21C19.75 21.4142 19.4142 21.75 19 21.75H5C4.80109 21.75 4.61032 21.671 4.46967 21.5303C4.32902 21.3897 4.25 21.1989 4.25 21C4.25 18.9446 5.06652 16.9733 6.51992 15.5199ZM12 14.75C10.3424 14.75 8.75268 15.4085 7.58058 16.5806C6.58666 17.5745 5.96206 18.8687 5.79514 20.25H18.2049C18.0379 18.8687 17.4133 17.5745 16.4194 16.5806C15.2473 15.4085 13.6576 14.75 12 14.75Z" fill="#323233"/>
</svg>
