<svg width="24" height="24" viewBox="0 0 24 24" fill="none" xmlns="http://www.w3.org/2000/svg">
<path fill-rule="evenodd" clip-rule="evenodd" d="M12.2707 21.4737C10.2857 21.4737 8.30075 20.9323 6.67669 19.8496L2.88722 21.1128L4.15038 17.5038C3.06767 15.8797 2.34586 13.8947 2.34586 11.7293C2.34586 11.3684 2.34586 11.0075 2.34586 10.8271C2.88722 5.77444 7.03759 1.80451 12.2707 1.80451C17.5038 1.80451 21.6541 5.77444 22.1955 11.0075C22.1955 11.188 22.1955 11.3684 22.1955 11.7293C22.1955 17.1429 17.6842 21.4737 12.2707 21.4737ZM24 11.3684C23.8195 5.05263 18.5865 0 12.2707 0C5.95489 0 0.721804 4.87218 0.360902 11.188C0.360902 11.3684 0.360902 11.5489 0.360902 11.7293C0.360902 13.8947 1.08271 16.0601 2.16541 17.6842L0 24L6.49624 22.015C8.1203 22.9173 10.1053 23.4586 12.2707 23.4586C18.7669 23.4586 24 18.2256 24 11.7293C24 11.5489 24 11.5489 24 11.3684Z" fill="#2CC861"/>
<path fill-rule="evenodd" clip-rule="evenodd" d="M17.6824 14.0758C17.3215 13.8954 15.8779 13.1735 15.6974 13.1735C15.3365 12.9931 15.1561 12.9931 14.9756 13.354C14.7952 13.5345 14.2538 14.2563 14.0734 14.4367C13.8929 14.6172 13.7125 14.6172 13.532 14.4367C13.1711 14.2563 12.2689 14.0758 11.1862 12.9931C10.2839 12.2713 9.74255 11.369 9.5621 11.0081C9.38165 10.8277 9.5621 10.6472 9.5621 10.4668C9.74255 10.2863 9.923 10.1059 10.1035 9.92543C10.1035 9.92543 10.1035 9.92543 10.1035 9.74498C10.2839 9.74498 10.2839 9.56453 10.2839 9.56453C10.4644 9.20362 10.4644 9.20362 10.2839 9.02317C10.2839 8.84272 9.74255 7.39911 9.38165 6.85776C9.2012 6.31641 9.02075 6.31641 8.8403 6.31641C8.65984 6.31641 8.47939 6.31641 8.29894 6.31641C8.11849 6.31641 7.75759 6.49686 7.39669 6.67731C7.21623 7.03821 6.49443 7.76002 6.49443 9.02317C6.49443 9.38408 6.49443 9.74498 6.67488 10.1059C6.85533 11.0081 7.57714 11.9104 7.57714 12.0908C7.75759 12.2713 9.5621 15.339 12.6298 16.4217C15.517 17.5044 15.517 17.1435 16.0583 17.1435C16.5997 17.1435 17.8629 16.4217 18.0433 15.6999C18.2238 15.1585 18.2238 14.4367 18.2238 14.4367C18.0433 14.2563 17.8629 14.2563 17.6824 14.0758Z" fill="#2CC861"/>
</svg>
