<svg width="24" height="24" viewBox="0 0 24 24" fill="none" xmlns="http://www.w3.org/2000/svg">
<path d="M16.4643 3C14.6205 3 13.0063 3.8327 12 5.24022C10.9937 3.8327 9.37946 3 7.53571 3C6.06806 3.00174 4.66099 3.61483 3.6232 4.70476C2.58541 5.7947 2.00165 7.27247 2 8.81387C2 15.3779 11.267 20.691 11.6616 20.9105C11.7656 20.9692 11.8819 21 12 21C12.1181 21 12.2344 20.9692 12.3384 20.9105C12.733 20.691 22 15.3779 22 8.81387C21.9983 7.27247 21.4146 5.7947 20.3768 4.70476C19.339 3.61483 17.9319 3.00174 16.4643 3ZM12 19.3914C10.3696 18.3936 3.42857 13.8485 3.42857 8.81387C3.42999 7.67031 3.86316 6.57402 4.63309 5.7654C5.40302 4.95678 6.44687 4.50184 7.53571 4.50035C9.27232 4.50035 10.7304 5.47183 11.3393 7.0322C11.3931 7.16979 11.4846 7.28747 11.6023 7.37029C11.7199 7.45312 11.8584 7.49734 12 7.49734C12.1416 7.49734 12.2801 7.45312 12.3977 7.37029C12.5154 7.28747 12.6069 7.16979 12.6607 7.0322C13.2696 5.46902 14.7277 4.50035 16.4643 4.50035C17.5531 4.50184 18.597 4.95678 19.3669 5.7654C20.1368 6.57402 20.57 7.67031 20.5714 8.81387C20.5714 13.841 13.6286 18.3927 12 19.3914Z" fill="#323233"/>
</svg>
