<svg width="20" height="20" viewBox="0 0 20 20" fill="none" xmlns="http://www.w3.org/2000/svg">
<g clip-path="url(#clip0_8631_293448)">
<path d="M9.7175 0.0645995L0.761681 4.38812C0.706654 4.41468 0.660234 4.45622 0.627752 4.50797C0.59527 4.55973 0.578043 4.61959 0.578049 4.68069V15.3193C0.578052 15.3804 0.595283 15.4403 0.627764 15.492C0.660245 15.5438 0.70666 15.5853 0.761681 15.6119L9.7175 19.9354C9.8056 19.9779 9.90217 20 10 20C10.0978 20 10.1944 19.9779 10.2825 19.9354L19.2383 15.6119C19.2933 15.5853 19.3398 15.5438 19.3722 15.492C19.4047 15.4403 19.422 15.3804 19.422 15.3193V4.68069C19.4219 4.61959 19.4047 4.55973 19.3722 4.50798C19.3398 4.45623 19.2933 4.41468 19.2383 4.38812L10.2825 0.0645995C10.1944 0.0220819 10.0978 0 10 0C9.90217 0 9.80561 0.0220819 9.7175 0.0645995Z" fill="#FFE17D"/>
<path d="M0.632072 4.50195C0.597063 4.55468 0.578281 4.61651 0.578049 4.6798V15.3184C0.578052 15.3795 0.595283 15.4394 0.627764 15.4911C0.660245 15.5429 0.70666 15.5844 0.761681 15.611L9.7175 19.9345C9.8056 19.977 9.90217 19.9991 10 19.9991V9.02442L0.632072 4.50195Z" fill="#FFC350"/>
<path d="M19.368 4.50195C19.403 4.55468 19.4218 4.61651 19.422 4.6798V15.3184C19.422 15.3795 19.4048 15.4394 19.3723 15.4911C19.3398 15.5429 19.2934 15.5844 19.2384 15.611L10.2825 19.9345C10.1945 19.977 10.0979 19.9991 10 19.9991V9.02441L19.368 4.50195Z" fill="#FFD164"/>
<path d="M3.25807 14.7526C3.20928 14.7525 3.16113 14.7415 3.11721 14.7202L1.73452 14.0527C1.69608 14.0342 1.66168 14.0083 1.63327 13.9764C1.60486 13.9446 1.583 13.9075 1.56895 13.8672C1.55489 13.8269 1.54892 13.7843 1.55136 13.7417C1.5538 13.6991 1.56462 13.6574 1.58319 13.619C1.66092 13.4575 1.85573 13.3902 2.0169 13.4677L3.39959 14.1352C3.43803 14.1538 3.47243 14.1797 3.50084 14.2115C3.52925 14.2433 3.55111 14.2804 3.56516 14.3207C3.57922 14.361 3.58519 14.4037 3.58275 14.4463C3.58031 14.4888 3.56949 14.5305 3.55092 14.5689C3.4951 14.685 3.37897 14.7526 3.25807 14.7526Z" fill="#FFE17D"/>
<path d="M4.53067 13.9244C4.48188 13.9244 4.43373 13.9133 4.38981 13.8921L1.73637 12.6112C1.57489 12.5332 1.507 12.339 1.58504 12.1775C1.66278 12.0164 1.85789 11.9488 2.01875 12.0262L4.67215 13.3071C4.83364 13.3851 4.90153 13.5793 4.82348 13.7408C4.7677 13.8568 4.65157 13.9244 4.53067 13.9244Z" fill="#FFF6D8"/>
<path d="M16.1934 6.0298L6.7925 1.48828L4.31438 2.68945L13.7363 7.23801L16.1934 6.0298Z" fill="#FF8087"/>
<path d="M13.7363 7.23746V10.7612C13.7363 10.8809 13.8614 10.9595 13.9693 10.9075L16.0097 9.9225C16.0647 9.89594 16.1111 9.8544 16.1436 9.80264C16.1761 9.75089 16.1933 9.69102 16.1933 9.62992V6.0293L13.7363 7.23746Z" fill="#E6646E"/>
</g>
<defs>
<clipPath id="clip0_8631_293448">
<rect width="20" height="20" fill="white"/>
</clipPath>
</defs>
</svg>
