<svg width="130" height="90" viewBox="0 0 130 90" fill="none" xmlns="http://www.w3.org/2000/svg">
<g opacity="0.2" clip-path="url(#clip0_8680_1587)">
<path d="M102.472 9.6219L94.5273 -4.13825C93.3733 -6.17852 91.4552 -7.63392 89.1884 -8.2413L77.3727 -11.4073L79.6504 -19.9078C80.068 -21.4662 79.1345 -23.083 77.5761 -23.5005C76.0177 -23.9181 74.401 -22.9847 73.9834 -21.4263L71.7057 -12.9258L59.89 -16.0918C57.6232 -16.6992 55.2344 -16.3978 53.2149 -15.2079L39.4547 -7.26344C37.4144 -6.10945 35.959 -4.19135 35.3517 -1.92455L20.0379 55.2271C18.7852 59.9024 21.5854 64.7525 26.2607 66.0053L77.2637 79.6715C81.9389 80.9242 86.7891 78.124 88.0419 73.4487L103.356 16.297C103.963 14.0302 103.662 11.6414 102.472 9.6219ZM60.6696 50.9296C61.9223 46.2544 66.7725 43.4541 71.4477 44.7068C76.123 45.9596 78.9233 50.8098 77.6705 55.485C76.4178 60.1603 71.5676 62.9606 66.8923 61.7078C62.2171 60.4551 59.4168 55.6049 60.6696 50.9296ZM83.9021 28.9417L40.7893 53.8328C40.0784 54.2193 39.2941 54.3129 38.5574 54.1155C37.8207 53.9181 37.1882 53.4449 36.7658 52.7547C35.9568 51.3536 36.4427 49.5401 37.8439 48.7312L80.9566 23.84C82.3578 23.031 84.1712 23.5169 84.9802 24.9181C85.7892 26.3193 85.3033 28.1327 83.9021 28.9417ZM61.0764 26.7432C59.8237 31.4185 54.9735 34.2187 50.2982 32.966C45.623 31.7132 42.8227 26.8631 44.0754 22.1878C45.3282 17.5125 50.1784 14.7123 54.8536 15.965C59.5289 17.2177 62.3292 22.0679 61.0764 26.7432ZM70.743 2.00095C72.3014 2.41852 73.2349 4.03525 72.8173 5.59368C72.3997 7.1521 70.783 8.08552 69.2246 7.66794C67.6661 7.25036 66.7327 5.63363 67.1503 4.07521C67.5679 2.51679 69.1846 1.58337 70.743 2.00095ZM68.4108 56.0408C66.8524 55.6232 65.919 54.0065 66.3365 52.4481C66.7541 50.8897 68.3709 49.9563 69.9293 50.3738C71.4877 50.7914 72.4211 52.4081 72.0035 53.9666C71.586 55.525 69.9692 56.4584 68.4108 56.0408ZM49.7424 23.7063C50.16 22.1478 51.7767 21.2144 53.3352 21.632C54.8936 22.0496 55.827 23.6663 55.4094 25.2247C54.9919 26.7831 53.3751 27.7166 51.8167 27.299C50.2583 26.8814 49.3249 25.2647 49.7424 23.7063Z" fill="#1A73E8"/>
<path d="M102.472 9.6219L94.5273 -4.13825C93.3733 -6.17852 91.4552 -7.63392 89.1884 -8.2413L77.3727 -11.4073L79.6504 -19.9078C80.068 -21.4662 79.1345 -23.083 77.5761 -23.5005C76.0177 -23.9181 74.401 -22.9847 73.9834 -21.4263L71.7057 -12.9258L59.89 -16.0918C57.6232 -16.6992 55.2344 -16.3978 53.2149 -15.2079L39.4547 -7.26344C37.4144 -6.10945 35.959 -4.19135 35.3517 -1.92455L20.0379 55.2271C18.7852 59.9024 21.5854 64.7525 26.2607 66.0053L77.2637 79.6715C81.9389 80.9242 86.7891 78.124 88.0419 73.4487L103.356 16.297C103.963 14.0302 103.662 11.6414 102.472 9.6219ZM60.6696 50.9296C61.9223 46.2544 66.7725 43.4541 71.4477 44.7068C76.123 45.9596 78.9233 50.8098 77.6705 55.485C76.4178 60.1603 71.5676 62.9606 66.8923 61.7078C62.2171 60.4551 59.4168 55.6049 60.6696 50.9296ZM83.9021 28.9417L40.7893 53.8328C40.0784 54.2193 39.2941 54.3129 38.5574 54.1155C37.8207 53.9181 37.1882 53.4449 36.7658 52.7547C35.9568 51.3536 36.4427 49.5401 37.8439 48.7312L80.9566 23.84C82.3578 23.031 84.1712 23.5169 84.9802 24.9181C85.7892 26.3193 85.3033 28.1327 83.9021 28.9417ZM61.0764 26.7432C59.8237 31.4185 54.9735 34.2187 50.2982 32.966C45.623 31.7132 42.8227 26.8631 44.0754 22.1878C45.3282 17.5125 50.1784 14.7123 54.8536 15.965C59.5289 17.2177 62.3292 22.0679 61.0764 26.7432ZM70.743 2.00095C72.3014 2.41852 73.2349 4.03525 72.8173 5.59368C72.3997 7.1521 70.783 8.08552 69.2246 7.66794C67.6661 7.25036 66.7327 5.63363 67.1503 4.07521C67.5679 2.51679 69.1846 1.58337 70.743 2.00095ZM68.4108 56.0408C66.8524 55.6232 65.919 54.0065 66.3365 52.4481C66.7541 50.8897 68.3709 49.9563 69.9293 50.3738C71.4877 50.7914 72.4211 52.4081 72.0035 53.9666C71.586 55.525 69.9692 56.4584 68.4108 56.0408ZM49.7424 23.7063C50.16 22.1478 51.7767 21.2144 53.3352 21.632C54.8936 22.0496 55.827 23.6663 55.4094 25.2247C54.9919 26.7831 53.3751 27.7166 51.8167 27.299C50.2583 26.8814 49.3249 25.2647 49.7424 23.7063Z" fill="#0073CE"/>
<path d="M102.472 9.6219L94.5273 -4.13825C93.3733 -6.17852 91.4552 -7.63392 89.1884 -8.2413L77.3727 -11.4073L79.6504 -19.9078C80.068 -21.4662 79.1345 -23.083 77.5761 -23.5005C76.0177 -23.9181 74.401 -22.9847 73.9834 -21.4263L71.7057 -12.9258L59.89 -16.0918C57.6232 -16.6992 55.2344 -16.3978 53.2149 -15.2079L39.4547 -7.26344C37.4144 -6.10945 35.959 -4.19135 35.3517 -1.92455L20.0379 55.2271C18.7852 59.9024 21.5854 64.7525 26.2607 66.0053L77.2637 79.6715C81.9389 80.9242 86.7891 78.124 88.0419 73.4487L103.356 16.297C103.963 14.0302 103.662 11.6414 102.472 9.6219ZM60.6696 50.9296C61.9223 46.2544 66.7725 43.4541 71.4477 44.7068C76.123 45.9596 78.9233 50.8098 77.6705 55.485C76.4178 60.1603 71.5676 62.9606 66.8923 61.7078C62.2171 60.4551 59.4168 55.6049 60.6696 50.9296ZM83.9021 28.9417L40.7893 53.8328C40.0784 54.2193 39.2941 54.3129 38.5574 54.1155C37.8207 53.9181 37.1882 53.4449 36.7658 52.7547C35.9568 51.3536 36.4427 49.5401 37.8439 48.7312L80.9566 23.84C82.3578 23.031 84.1712 23.5169 84.9802 24.9181C85.7892 26.3193 85.3033 28.1327 83.9021 28.9417ZM61.0764 26.7432C59.8237 31.4185 54.9735 34.2187 50.2982 32.966C45.623 31.7132 42.8227 26.8631 44.0754 22.1878C45.3282 17.5125 50.1784 14.7123 54.8536 15.965C59.5289 17.2177 62.3292 22.0679 61.0764 26.7432ZM70.743 2.00095C72.3014 2.41852 73.2349 4.03525 72.8173 5.59368C72.3997 7.1521 70.783 8.08552 69.2246 7.66794C67.6661 7.25036 66.7327 5.63363 67.1503 4.07521C67.5679 2.51679 69.1846 1.58337 70.743 2.00095ZM68.4108 56.0408C66.8524 55.6232 65.919 54.0065 66.3365 52.4481C66.7541 50.8897 68.3709 49.9563 69.9293 50.3738C71.4877 50.7914 72.4211 52.4081 72.0035 53.9666C71.586 55.525 69.9692 56.4584 68.4108 56.0408ZM49.7424 23.7063C50.16 22.1478 51.7767 21.2144 53.3352 21.632C54.8936 22.0496 55.827 23.6663 55.4094 25.2247C54.9919 26.7831 53.3751 27.7166 51.8167 27.299C50.2583 26.8814 49.3249 25.2647 49.7424 23.7063Z" fill="#327FDA"/>
</g>
<defs>
<clipPath id="clip0_8680_1587">
<rect width="105.604" height="105.604" fill="white" transform="translate(27.3324 -40) rotate(15)"/>
</clipPath>
</defs>
</svg>
