<svg width="48" height="40" viewBox="0 0 48 40" fill="none" xmlns="http://www.w3.org/2000/svg">
<g clip-path="url(#clip0_8680_1606)">
<path d="M30.3291 18.8621L19.5291 25.3794L0.0290909 13.5669C0.0290909 12.3665 0.503197 11.2154 1.34711 10.3666C2.19102 9.51785 3.33562 9.04102 4.52909 9.04102L27.1191 9.04102C27.0588 9.54159 27.0287 10.0454 27.0291 10.5496C27.0291 13.6434 28.2104 16.6191 30.3291 18.8621Z" fill="#EE7767"/>
<path d="M30.3291 18.8621L19.5291 25.3794L0.0290909 13.5669C0.0290909 12.3665 0.503197 11.2154 1.34711 10.3666C2.19102 9.51785 3.33562 9.04102 4.52909 9.04102L27.1191 9.04102C27.0588 9.54159 27.0287 10.0454 27.0291 10.5496C27.0291 13.6434 28.2104 16.6191 30.3291 18.8621Z" fill="#F26552"/>
<path d="M39.0292 22.6187V34.6877C39.0292 35.888 38.5551 37.0392 37.7112 37.888C36.8672 38.7367 35.7226 39.2136 34.5292 39.2136H4.52917C3.3357 39.2136 2.19111 38.7367 1.34719 37.888C0.503281 37.0392 0.0291748 35.888 0.0291748 34.6877L0.0291748 17.1424L18.7642 28.442C18.9922 28.5744 19.2509 28.6441 19.5142 28.6441C19.7775 28.6441 20.0361 28.5744 20.2642 28.442L32.8042 20.8989C34.684 22.0333 36.8369 22.6281 39.0292 22.6187ZM39.0292 1.49805C37.2491 1.49805 35.5091 2.02892 34.029 3.02354C32.549 4.01815 31.3954 5.43184 30.7143 7.08583C30.0331 8.73981 29.8548 10.5598 30.2021 12.3157C30.5494 14.0715 31.4065 15.6844 32.6652 16.9503C33.9239 18.2162 35.5275 19.0783 37.2734 19.4276C39.0192 19.7768 40.8288 19.5976 42.4733 18.9125C44.1179 18.2274 45.5235 17.0672 46.5124 15.5786C47.5013 14.0901 48.0292 12.34 48.0292 10.5498C48.0292 8.1491 47.081 5.84676 45.3931 4.14924C43.7053 2.45171 41.4161 1.49805 39.0292 1.49805ZM42.0292 12.0584H40.5292V13.567C40.5292 13.9671 40.3711 14.3508 40.0898 14.6338C39.8085 14.9167 39.427 15.0756 39.0292 15.0756C38.6314 15.0756 38.2498 14.9167 37.9685 14.6338C37.6872 14.3508 37.5292 13.9671 37.5292 13.567V12.0584H36.0292C35.6314 12.0584 35.2498 11.8994 34.9685 11.6165C34.6872 11.3336 34.5292 10.9499 34.5292 10.5498C34.5292 10.1497 34.6872 9.76594 34.9685 9.48302C35.2498 9.20009 35.6314 9.04115 36.0292 9.04115H37.5292V7.53253C37.5292 7.13242 37.6872 6.7487 37.9685 6.46577C38.2498 6.18285 38.6314 6.02391 39.0292 6.02391C39.427 6.02391 39.8085 6.18285 40.0898 6.46577C40.3711 6.7487 40.5292 7.13242 40.5292 7.53253V9.04115H42.0292C42.427 9.04115 42.8085 9.20009 43.0898 9.48302C43.3711 9.76594 43.5292 10.1497 43.5292 10.5498C43.5292 10.9499 43.3711 11.3336 43.0898 11.6165C42.8085 11.8994 42.427 12.0584 42.0292 12.0584Z" fill="#EE7767"/>
<path d="M39.0292 22.6187V34.6877C39.0292 35.888 38.5551 37.0392 37.7112 37.888C36.8672 38.7367 35.7226 39.2136 34.5292 39.2136H4.52917C3.3357 39.2136 2.19111 38.7367 1.34719 37.888C0.503281 37.0392 0.0291748 35.888 0.0291748 34.6877L0.0291748 17.1424L18.7642 28.442C18.9922 28.5744 19.2509 28.6441 19.5142 28.6441C19.7775 28.6441 20.0361 28.5744 20.2642 28.442L32.8042 20.8989C34.684 22.0333 36.8369 22.6281 39.0292 22.6187ZM39.0292 1.49805C37.2491 1.49805 35.5091 2.02892 34.029 3.02354C32.549 4.01815 31.3954 5.43184 30.7143 7.08583C30.0331 8.73981 29.8548 10.5598 30.2021 12.3157C30.5494 14.0715 31.4065 15.6844 32.6652 16.9503C33.9239 18.2162 35.5275 19.0783 37.2734 19.4276C39.0192 19.7768 40.8288 19.5976 42.4733 18.9125C44.1179 18.2274 45.5235 17.0672 46.5124 15.5786C47.5013 14.0901 48.0292 12.34 48.0292 10.5498C48.0292 8.1491 47.081 5.84676 45.3931 4.14924C43.7053 2.45171 41.4161 1.49805 39.0292 1.49805ZM42.0292 12.0584H40.5292V13.567C40.5292 13.9671 40.3711 14.3508 40.0898 14.6338C39.8085 14.9167 39.427 15.0756 39.0292 15.0756C38.6314 15.0756 38.2498 14.9167 37.9685 14.6338C37.6872 14.3508 37.5292 13.9671 37.5292 13.567V12.0584H36.0292C35.6314 12.0584 35.2498 11.8994 34.9685 11.6165C34.6872 11.3336 34.5292 10.9499 34.5292 10.5498C34.5292 10.1497 34.6872 9.76594 34.9685 9.48302C35.2498 9.20009 35.6314 9.04115 36.0292 9.04115H37.5292V7.53253C37.5292 7.13242 37.6872 6.7487 37.9685 6.46577C38.2498 6.18285 38.6314 6.02391 39.0292 6.02391C39.427 6.02391 39.8085 6.18285 40.0898 6.46577C40.3711 6.7487 40.5292 7.13242 40.5292 7.53253V9.04115H42.0292C42.427 9.04115 42.8085 9.20009 43.0898 9.48302C43.3711 9.76594 43.5292 10.1497 43.5292 10.5498C43.5292 10.9499 43.3711 11.3336 43.0898 11.6165C42.8085 11.8994 42.427 12.0584 42.0292 12.0584Z" fill="#F26552"/>
</g>
<defs>
<clipPath id="clip0_8680_1606">
<rect width="48" height="40" fill="white"/>
</clipPath>
</defs>
</svg>
