<svg width="263" height="40" viewBox="0 0 263 40" fill="none" xmlns="http://www.w3.org/2000/svg">
<g clip-path="url(#clip0_8680_2184)">
<mask id="mask0_8680_2184" style="mask-type:luminance" maskUnits="userSpaceOnUse" x="0" y="0" width="263" height="40">
<path d="M263 0H0V40H263V0Z" fill="white"/>
</mask>
<g mask="url(#mask0_8680_2184)">
<path fill-rule="evenodd" clip-rule="evenodd" d="M34.921 18.3134L27.2774 11.9122H17.011L12.8145 8.32031L3.93433 8.39143L13.5263 18.3134H34.921Z" fill="#1365A1"/>
<path fill-rule="evenodd" clip-rule="evenodd" d="M34.9584 19.7715L27.6896 25.7816L17.1983 25.8527L13.2266 29.7646L3.93433 29.6935L13.5263 19.7715H34.9584Z" fill="#777370"/>
<path fill-rule="evenodd" clip-rule="evenodd" d="M15.3997 18.0295C13.6011 18.0295 12.1398 16.6426 12.1398 14.9356C12.1398 13.2285 13.6011 11.8416 15.3997 11.8416C17.1982 11.8416 18.6595 13.2285 18.6595 14.9356C18.6595 16.6426 17.1982 18.0295 15.3997 18.0295Z" fill="white"/>
<path fill-rule="evenodd" clip-rule="evenodd" d="M18.8469 32.0415C17.0483 32.0415 15.587 30.6546 15.587 28.9476C15.587 27.2405 17.0483 25.8535 18.8469 25.8535C20.6454 25.8535 22.1067 27.2405 22.1067 28.9476C22.1067 30.6546 20.6454 32.0415 18.8469 32.0415Z" fill="#1365A1"/>
<path d="M36.3447 2.77374V34.8515H2.54788V2.77374H36.3447ZM38.8926 0.355469H0V37.2698H38.8926V0.355469Z" fill="#1365A1"/>
<path d="M59.9641 5.01421H51.9832V22.0133H46.775V0.355469H65.1722V22.0133H59.9641V5.01421Z" fill="#1365A1"/>
<path d="M71.0549 22.0141V0.356282C72.3289 0.356282 76.2631 0.285156 78.0242 0.285156C84.9559 0.285156 87.2415 3.73476 87.2415 7.46886C87.2415 11.3452 84.0941 14.7237 78.811 14.7237C78.3239 14.7237 77.0874 14.7237 76.2631 14.617V21.9785H71.0549V22.0141ZM76.2631 5.01502V9.9583C77.0125 10.065 77.8743 10.1005 78.6236 10.1005C80.01 10.1005 81.6961 9.53155 81.6961 7.4333C81.6961 5.5129 80.3847 4.94389 78.5487 4.94389C77.8743 4.94389 77.3497 4.97946 76.2631 5.01502Z" fill="#1365A1"/>
<path d="M101.967 0C108.899 0 114.107 4.30311 114.107 11.2023C114.107 17.7459 108.936 22.4046 101.967 22.4046C95.0357 22.4046 89.8274 18.1015 89.8274 11.2023C89.8649 4.90768 94.6978 0 101.967 0ZM101.967 17.7459C106.314 17.7459 108.562 14.8297 108.562 11.2023C108.562 7.25483 105.677 4.65874 101.967 4.65874C98.1828 4.65874 95.3727 7.25483 95.3727 11.2023C95.3727 14.9009 98.3326 17.7459 101.967 17.7459Z" fill="#1365A1"/>
<path d="M118.341 0.355469H123.549V9.77965L131.005 0.355469H137.263L128.682 10.3486L137.937 22.0133H131.305L123.512 11.7V22.0133H118.304V0.355469H118.341Z" fill="#1365A1"/>
<path d="M150.188 0C157.12 0 162.328 4.30311 162.328 11.2023C162.328 17.7459 157.157 22.4046 150.188 22.4046C143.257 22.4046 138.048 18.1015 138.048 11.2023C138.086 4.90768 142.92 0 150.188 0ZM150.188 17.7459C154.534 17.7459 156.783 14.8297 156.783 11.2023C156.783 7.25483 153.898 4.65874 150.188 4.65874C146.404 4.65874 143.594 7.25483 143.594 11.2023C143.631 14.9009 146.554 17.7459 150.188 17.7459Z" fill="#1365A1"/>
<path d="M180.089 13.3004H171.771V22.0133H166.563V0.355469H171.771V8.64162H180.089V0.355469H185.297V22.0133H180.089V13.3004Z" fill="#1365A1"/>
<path d="M208.941 19.8796C207.554 21.3377 204.594 22.3691 201.521 22.3691C194.44 22.3691 189.569 17.9237 189.569 11.1668C189.532 4.9788 193.616 0 201.484 0C204.519 0 207.105 0.99576 208.454 2.24046L206.13 5.97456C204.894 5.26331 203.62 4.65874 201.484 4.65874C197.962 4.65874 195.115 6.93476 195.115 11.2023C195.115 15.0431 197.925 17.7459 202.009 17.7459C203.62 17.7459 205.418 17.248 206.954 16.1811L208.941 19.8796Z" fill="#1365A1"/>
<path d="M212.5 22.0133V0.355469H217.745V13.7982L227.861 0.355469H232.433V22.0133H227.225V8.57049L217.108 22.0133H212.5Z" fill="#1365A1"/>
<path d="M238.278 0.355469H243.524L250.568 9.49512L257.2 0.355469H262.109V22.0133H256.9V8.21486L250.53 16.6433H249.781L243.449 8.28599V21.9777H238.241V0.355469H238.278Z" fill="#1365A1"/>
<path d="M52.5824 31.7211H50.3342V37.2334H49.1728V31.7211H46.962V30.832H52.5824V31.7211Z" fill="#525252"/>
<path d="M61.6866 34.1051C61.6866 35.0652 61.4617 35.8476 60.9746 36.4522C60.4876 37.0568 59.888 37.3412 59.0637 37.3412C58.2394 37.3412 57.6024 37.0923 57.1528 36.5945V39.6529H55.9913V30.8332H57.0404L57.0779 31.5445C57.5275 31.0111 58.202 30.7266 59.0263 30.7266C59.8506 30.7266 60.4876 31.0111 60.9372 31.5801C61.4243 32.1491 61.649 32.967 61.649 33.9984V34.1051H61.6866ZM60.525 33.9628C60.525 33.2515 60.3751 32.6826 60.0379 32.2558C59.7007 31.8291 59.2886 31.6156 58.689 31.6156C57.9771 31.6156 57.4525 31.9002 57.1154 32.5047V35.5631C57.4525 36.1322 57.9771 36.4522 58.689 36.4522C59.2511 36.4522 59.6633 36.2388 60.0004 35.8121C60.3751 35.4209 60.525 34.7807 60.525 33.9628Z" fill="#525252"/>
<path d="M67.5697 35.633L69.1434 30.832H70.3799L67.6821 38.1935C67.27 39.2605 66.5955 39.7939 65.6962 39.7939H65.4715L65.0592 39.7228V38.8337L65.3591 38.8693C65.7337 38.8693 66.0709 38.7982 66.2583 38.6559C66.4831 38.5136 66.6704 38.2291 66.7828 37.838L67.0451 37.1978L64.6471 30.8676H65.9211L67.5697 35.633Z" fill="#525252"/>
<path d="M76.6367 31.1881C77.4984 31.1881 78.1729 31.4726 78.66 32.006C79.1846 32.5396 79.4093 33.2508 79.4093 34.1398V34.2466C79.4093 34.8511 79.297 35.3845 79.0347 35.8468C78.7724 36.3092 78.4352 36.7004 77.9856 36.9493C77.536 37.1982 77.0114 37.3405 76.4118 37.3405C75.5126 37.3405 74.7632 37.056 74.2387 36.487C73.6766 35.918 73.4144 35.1356 73.4144 34.1754V33.642C73.4144 32.2906 73.6766 31.2237 74.2012 30.4413C74.7258 29.6589 75.5126 29.1611 76.5243 28.9832C77.0863 28.8765 77.4984 28.7699 77.6858 28.6276C77.8731 28.4853 77.9856 28.3076 77.9856 28.0586H78.9223C78.9223 28.5564 78.8099 28.9476 78.585 29.1966C78.3603 29.4811 77.9856 29.6589 77.461 29.7656L76.5992 29.9435C75.9248 30.0857 75.4002 30.3702 75.063 30.7258C74.7258 31.0814 74.5009 31.5793 74.3885 32.1839C75.0255 31.5437 75.7749 31.1881 76.6367 31.1881ZM76.4118 32.1128C75.8498 32.1128 75.4002 32.2906 75.063 32.6462C74.7258 33.0019 74.5759 33.4997 74.5759 34.1398V34.2466C74.5759 34.9222 74.7258 35.4912 75.063 35.8824C75.4002 36.2736 75.8498 36.487 76.4118 36.487C76.9739 36.487 77.4235 36.2736 77.7607 35.8824C78.098 35.4912 78.2478 34.8867 78.2478 34.1398C78.2478 33.5353 78.098 33.0374 77.7607 32.6818C77.461 32.2906 77.0114 32.1128 76.4118 32.1128Z" fill="#525252"/>
<path d="M82.745 33.9628C82.745 33.3227 82.8574 32.7892 83.1197 32.2914C83.3819 31.7935 83.7566 31.4023 84.2063 31.1178C84.6559 30.8332 85.1804 30.7266 85.7799 30.7266C86.6792 30.7266 87.4285 31.0111 87.9906 31.6156C88.5526 32.2203 88.8524 33.0026 88.8524 34.0339V34.1051C88.8524 34.7096 88.7399 35.2787 88.4776 35.7765C88.2154 36.2744 87.8782 36.6656 87.3911 36.9145C86.9415 37.199 86.3795 37.3412 85.7799 37.3412C84.8807 37.3412 84.1313 37.0568 83.5693 36.4522C83.0072 35.8476 82.7075 35.0652 82.7075 34.0695V33.9628H82.745ZM83.869 34.1051C83.869 34.8163 84.0564 35.3853 84.3936 35.8121C84.7308 36.2388 85.2179 36.4522 85.7799 36.4522C86.3795 36.4522 86.829 36.2388 87.1663 35.8121C87.5035 35.3853 87.6908 34.7807 87.6908 33.9984C87.6908 33.2871 87.5035 32.7181 87.1663 32.2914C86.829 31.8646 86.3419 31.6512 85.7799 31.6512C85.2179 31.6512 84.7683 31.8646 84.3936 32.2914C84.0564 32.6826 83.869 33.2871 83.869 34.1051Z" fill="#525252"/>
<path d="M98.1062 37.2334H96.9454V31.7567H93.8349V37.2334H92.6732V30.832H98.0687V37.2334H98.1062Z" fill="#525252"/>
<path d="M107.924 34.1051C107.924 35.0652 107.699 35.8476 107.212 36.4522C106.763 37.0568 106.125 37.3412 105.302 37.3412C104.477 37.3412 103.84 37.0923 103.39 36.5945V39.6529H102.229V30.8332H103.278L103.353 31.5445C103.802 31.0111 104.477 30.7266 105.302 30.7266C106.125 30.7266 106.763 31.0111 107.212 31.5801C107.699 32.1491 107.924 32.967 107.924 33.9984V34.1051ZM106.763 33.9628C106.763 33.2515 106.612 32.6826 106.275 32.2558C105.938 31.8291 105.526 31.6156 104.926 31.6156C104.215 31.6156 103.69 31.9002 103.353 32.5047V35.5631C103.69 36.1322 104.215 36.4522 104.926 36.4522C105.489 36.4522 105.901 36.2388 106.238 35.8121C106.612 35.4209 106.763 34.7807 106.763 33.9628Z" fill="#525252"/>
<path d="M111.37 33.9628C111.37 33.3227 111.483 32.7892 111.745 32.2914C112.008 31.7935 112.382 31.4023 112.831 31.1178C113.282 30.8332 113.806 30.7266 114.405 30.7266C115.305 30.7266 116.054 31.0111 116.616 31.6156C117.178 32.2203 117.478 33.0026 117.478 34.0339V34.1051C117.478 34.7096 117.366 35.2787 117.103 35.7765C116.841 36.2744 116.504 36.6656 116.017 36.9145C115.567 37.199 115.005 37.3412 114.405 37.3412C113.506 37.3412 112.757 37.0568 112.195 36.4522C111.632 35.8476 111.333 35.0652 111.333 34.0695V33.9628H111.37ZM112.532 34.1051C112.532 34.8163 112.719 35.3853 113.056 35.8121C113.394 36.2388 113.881 36.4522 114.442 36.4522C115.042 36.4522 115.492 36.2388 115.829 35.8121C116.167 35.3853 116.354 34.7807 116.354 33.9984C116.354 33.2871 116.167 32.7181 115.829 32.2914C115.492 31.8646 115.005 31.6512 114.442 31.6512C113.881 31.6512 113.431 31.8646 113.056 32.2914C112.719 32.6826 112.532 33.2871 112.532 34.1051Z" fill="#525252"/>
<path d="M121.338 37.2334V30.832H123.96C124.859 30.832 125.534 30.9743 126.021 31.2943C126.508 31.5789 126.733 32.0412 126.733 32.6102C126.733 32.8947 126.658 33.1792 126.471 33.3926C126.284 33.6415 126.021 33.8193 125.646 33.926C126.058 34.0327 126.396 34.2105 126.621 34.4595C126.883 34.7084 126.995 35.0285 126.995 35.4197C126.995 35.9887 126.77 36.451 126.321 36.7711C125.871 37.0911 125.234 37.2334 124.41 37.2334H121.338ZM122.499 33.5349H123.998C125.085 33.5349 125.609 33.2503 125.609 32.6457C125.609 32.0412 125.085 31.7211 124.073 31.7211H122.499V33.5349ZM122.499 34.4239V36.3443H124.41C124.896 36.3443 125.234 36.2732 125.496 36.0953C125.721 35.9175 125.871 35.7042 125.871 35.3841C125.871 34.7439 125.384 34.4239 124.372 34.4239H122.499Z" fill="#525252"/>
<path d="M130.518 33.9628C130.518 33.3227 130.63 32.7892 130.892 32.2914C131.154 31.7935 131.529 31.4023 131.979 31.1178C132.428 30.8332 132.953 30.7266 133.552 30.7266C134.452 30.7266 135.201 31.0111 135.763 31.6156C136.325 32.2203 136.624 33.0026 136.624 34.0339V34.1051C136.624 34.7096 136.512 35.2787 136.25 35.7765C135.988 36.2744 135.651 36.6656 135.163 36.9145C134.714 37.199 134.151 37.3412 133.552 37.3412C132.653 37.3412 131.904 37.0568 131.341 36.4522C130.78 35.8476 130.48 35.0652 130.48 34.0695V33.9628H130.518ZM131.642 34.1051C131.642 34.8163 131.829 35.3853 132.166 35.8121C132.503 36.2388 132.991 36.4522 133.552 36.4522C134.151 36.4522 134.602 36.2388 134.939 35.8121C135.276 35.3853 135.463 34.7807 135.463 33.9984C135.463 33.2871 135.276 32.7181 134.939 32.2914C134.602 31.8646 134.114 31.6512 133.552 31.6512C132.991 31.6512 132.54 31.8646 132.166 32.2914C131.829 32.6826 131.642 33.2871 131.642 34.1051Z" fill="#525252"/>
<path d="M139.847 36.3443L140.259 35.882C140.709 35.3486 140.972 34.4951 141.009 33.3926L141.121 30.832H145.468V36.3443H146.33V39.1182H145.168V37.2334H140.484V39.1182H139.323V36.3443H139.847ZM141.234 36.3443H144.343V31.8279H142.283L142.208 33.357C142.096 34.6373 141.795 35.633 141.234 36.3443Z" fill="#525252"/>
<path d="M155.396 37.2334H154.235V34.4951H151.125V37.2334H149.964V30.832H151.125V33.606H154.235V30.832H155.396V37.2334Z" fill="#525252"/>
<path d="M163.677 37.2335C163.602 37.0912 163.565 36.8779 163.527 36.5578C163.003 37.0912 162.366 37.3402 161.617 37.3402C160.942 37.3402 160.418 37.1623 159.968 36.8067C159.555 36.4511 159.331 35.9888 159.331 35.4553C159.331 34.7796 159.593 34.2818 160.118 33.8906C160.642 33.5349 161.392 33.3215 162.366 33.3215H163.49V32.8236C163.49 32.4324 163.377 32.148 163.115 31.899C162.891 31.6857 162.515 31.5434 162.066 31.5434C161.654 31.5434 161.317 31.65 161.017 31.8279C160.755 32.0412 160.605 32.2547 160.605 32.5392H159.443C159.443 32.2191 159.555 31.899 159.818 31.6145C160.043 31.33 160.38 31.0811 160.792 30.9033C161.204 30.7254 161.654 30.6543 162.141 30.6543C162.928 30.6543 163.527 30.8322 163.977 31.2234C164.427 31.5789 164.651 32.1124 164.651 32.7525V35.7043C164.651 36.2732 164.726 36.7711 164.876 37.0912V37.1979H163.677V37.2335ZM161.766 36.38C162.141 36.38 162.478 36.3088 162.778 36.131C163.115 35.9532 163.34 35.7398 163.49 35.4553V34.1395H162.59C161.166 34.1395 160.492 34.5307 160.492 35.3131C160.492 35.6687 160.605 35.9176 160.867 36.131C161.092 36.3088 161.392 36.38 161.766 36.38Z" fill="#525252"/>
<path d="M173.905 30.8324V37.2338H172.744V34.7444H171.02L169.447 37.2338H168.21L169.896 34.5666C169.447 34.4243 169.147 34.1754 168.923 33.8553C168.697 33.5352 168.585 33.1796 168.585 32.7528C168.585 32.1838 168.809 31.686 169.26 31.3303C169.709 30.9747 170.346 30.7969 171.095 30.7969H173.905V30.8324ZM169.709 32.7884C169.709 33.1084 169.821 33.3574 170.046 33.5352C170.272 33.7131 170.571 33.8197 170.946 33.8197H172.781V31.686H171.133C170.721 31.686 170.384 31.7926 170.121 31.9705C169.821 32.2194 169.709 32.4684 169.709 32.7884Z" fill="#525252"/>
<path d="M194.514 37.2335C194.439 37.0912 194.402 36.8779 194.364 36.5578C193.84 37.0912 193.202 37.3402 192.454 37.3402C191.779 37.3402 191.254 37.1623 190.804 36.8067C190.392 36.4511 190.168 35.9888 190.168 35.4553C190.168 34.7796 190.43 34.2818 190.954 33.8906C191.479 33.5349 192.228 33.3215 193.202 33.3215H194.327V32.8236C194.327 32.4324 194.214 32.148 193.952 31.899C193.728 31.6857 193.352 31.5434 192.903 31.5434C192.491 31.5434 192.153 31.65 191.854 31.8279C191.591 32.0412 191.442 32.2547 191.442 32.5392H190.28C190.28 32.2191 190.392 31.899 190.655 31.6145C190.879 31.33 191.217 31.0811 191.629 30.9033C192.041 30.7254 192.491 30.6543 192.978 30.6543C193.765 30.6543 194.364 30.8322 194.813 31.2234C195.264 31.5789 195.488 32.1124 195.488 32.7525V35.7043C195.488 36.2732 195.563 36.7711 195.713 37.0912V37.1979H194.514V37.2335ZM192.603 36.38C192.978 36.38 193.315 36.3088 193.614 36.131C193.952 35.9532 194.177 35.7398 194.327 35.4553V34.1395H193.427C192.003 34.1395 191.329 34.5307 191.329 35.3131C191.329 35.6687 191.442 35.9176 191.704 36.131C191.891 36.3088 192.191 36.38 192.603 36.38Z" fill="#525252"/>
<path d="M205.268 34.1051C205.268 35.0652 205.044 35.8476 204.556 36.4522C204.069 37.0568 203.47 37.3412 202.646 37.3412C201.821 37.3412 201.184 37.0923 200.735 36.5945V39.6529H199.573V30.8332H200.622L200.66 31.5445C201.147 31.0111 201.783 30.7266 202.608 30.7266C203.433 30.7266 204.069 31.0111 204.519 31.5801C205.006 32.1491 205.231 32.967 205.231 33.9984V34.1051H205.268ZM204.107 33.9628C204.107 33.2515 203.957 32.6826 203.62 32.2558C203.282 31.8291 202.87 31.6156 202.271 31.6156C201.559 31.6156 201.035 31.9002 200.698 32.5047V35.5631C201.035 36.1322 201.559 36.4522 202.271 36.4522C202.833 36.4522 203.245 36.2388 203.583 35.8121C203.92 35.4209 204.107 34.7807 204.107 33.9628Z" fill="#525252"/>
<path d="M212.873 35.7756L215.159 30.8324H216.583V37.2338H215.421V32.575L213.248 37.2338H212.499L210.25 32.4684V37.1982H209.127V30.7969H210.626L212.873 35.7756Z" fill="#525252"/>
<path d="M224.902 37.2335C224.827 37.0912 224.789 36.8779 224.752 36.5578C224.228 37.0912 223.59 37.3402 222.841 37.3402C222.166 37.3402 221.642 37.1623 221.192 36.8067C220.78 36.4511 220.555 35.9888 220.555 35.4553C220.555 34.7796 220.818 34.2818 221.342 33.8906C221.867 33.5349 222.616 33.3215 223.59 33.3215H224.714V32.8236C224.714 32.4324 224.602 32.148 224.34 31.899C224.115 31.6857 223.74 31.5434 223.291 31.5434C222.879 31.5434 222.541 31.65 222.241 31.8279C221.979 32.0412 221.829 32.2547 221.829 32.5392H220.668C220.668 32.2191 220.78 31.899 221.042 31.6145C221.267 31.33 221.605 31.0811 222.017 30.9033C222.429 30.7254 222.879 30.6543 223.366 30.6543C224.153 30.6543 224.752 30.8322 225.201 31.2234C225.651 31.5789 225.876 32.1124 225.876 32.7525V35.7043C225.876 36.2732 225.951 36.7711 226.101 37.0912V37.1979H224.902V37.2335ZM222.991 36.38C223.366 36.38 223.703 36.3088 224.002 36.131C224.34 35.9532 224.565 35.7398 224.714 35.4553V34.1395H223.815C222.391 34.1395 221.717 34.5307 221.717 35.3131C221.717 35.6687 221.829 35.9176 222.092 36.131C222.316 36.3088 222.616 36.38 222.991 36.38Z" fill="#525252"/>
<path d="M234.868 31.7211H232.619V37.2334H231.458V31.7211H229.248V30.832H234.868V31.7211Z" fill="#525252"/>
<path d="M240.563 35.633L242.137 30.832H243.373L240.675 38.1935C240.263 39.2605 239.589 39.7939 238.69 39.7939H238.465L238.052 39.7228V38.8337L238.352 38.8693C238.727 38.8693 239.064 38.7982 239.252 38.6559C239.476 38.5136 239.663 38.2291 239.777 37.838L240.039 37.1978L237.603 30.832H238.877L240.563 35.633Z" fill="#525252"/>
<path d="M252.366 34.1051C252.366 35.0652 252.141 35.8476 251.654 36.4522C251.167 37.0568 250.568 37.3412 249.743 37.3412C248.918 37.3412 248.282 37.0923 247.832 36.5945V39.6529H246.671V30.8332H247.72L247.758 31.5445C248.244 31.0111 248.881 30.7266 249.706 30.7266C250.53 30.7266 251.167 31.0111 251.616 31.5801C252.104 32.1491 252.328 32.967 252.328 33.9984V34.1051H252.366ZM251.204 33.9628C251.204 33.2515 251.054 32.6826 250.717 32.2558C250.38 31.8291 249.968 31.6156 249.369 31.6156C248.656 31.6156 248.132 31.9002 247.795 32.5047V35.5631C248.132 36.1322 248.656 36.4522 249.369 36.4522C249.93 36.4522 250.343 36.2388 250.68 35.8121C251.054 35.4209 251.204 34.7807 251.204 33.9628Z" fill="#525252"/>
<path d="M260.272 37.2335C260.197 37.0912 260.16 36.8779 260.122 36.5578C259.597 37.0912 258.961 37.3402 258.211 37.3402C257.537 37.3402 257.012 37.1623 256.562 36.8067C256.15 36.4511 255.926 35.9888 255.926 35.4553C255.926 34.7796 256.188 34.2818 256.712 33.8906C257.237 33.5349 257.986 33.3215 258.961 33.3215H260.085V32.8236C260.085 32.4324 259.972 32.148 259.709 31.899C259.485 31.6857 259.11 31.5434 258.661 31.5434C258.248 31.5434 257.911 31.65 257.612 31.8279C257.35 32.0412 257.2 32.2547 257.2 32.5392H256.038C256.038 32.2191 256.15 31.899 256.413 31.6145C256.637 31.33 256.974 31.0811 257.387 30.9033C257.799 30.7254 258.248 30.6543 258.736 30.6543C259.522 30.6543 260.122 30.8322 260.572 31.2234C261.021 31.5789 261.246 32.1124 261.246 32.7525V35.7043C261.246 36.2732 261.321 36.7711 261.471 37.0912V37.1979H260.272V37.2335ZM258.361 36.38C258.736 36.38 259.073 36.3088 259.372 36.131C259.709 35.9532 259.935 35.7398 260.085 35.4553V34.1395H259.185C257.761 34.1395 257.087 34.5307 257.087 35.3131C257.087 35.6687 257.2 35.9176 257.462 36.131C257.687 36.3088 257.986 36.38 258.361 36.38Z" fill="#525252"/>
</g>
</g>
<defs>
<clipPath id="clip0_8680_2184">
<rect width="263" height="40" fill="white"/>
</clipPath>
</defs>
</svg>
