<svg aria-hidden="true" xmlns="http://www.w3.org/2000/svg" xmlns:xlink="http://www.w3.org/1999/xlink"><symbol viewBox="0 0 24 24" id="arrow" xmlns="http://www.w3.org/2000/svg">
<path fill-rule="evenodd" clip-rule="evenodd" d="M4 12C4 11.4477 4.44772 11 5 11H19C19.5523 11 20 11.4477 20 12C20 12.5523 19.5523 13 19 13H5C4.44772 13 4 12.5523 4 12Z"/>
<path fill-rule="evenodd" clip-rule="evenodd" d="M4 12C4 11.4477 4.44772 11 5 11H19C19.5523 11 20 11.4477 20 12C20 12.5523 19.5523 13 19 13H5C4.44772 13 4 12.5523 4 12Z"/>
<path fill-rule="evenodd" clip-rule="evenodd" d="M11.2929 4.29289C11.6834 3.90237 12.3166 3.90237 12.7071 4.29289L19.7071 11.2929C20.0976 11.6834 20.0976 12.3166 19.7071 12.7071L12.7071 19.7071C12.3166 20.0976 11.6834 20.0976 11.2929 19.7071C10.9024 19.3166 10.9024 18.6834 11.2929 18.2929L17.5858 12L11.2929 5.70711C10.9024 5.31658 10.9024 4.68342 11.2929 4.29289Z"/>
<path fill-rule="evenodd" clip-rule="evenodd" d="M11.2929 4.29289C11.6834 3.90237 12.3166 3.90237 12.7071 4.29289L19.7071 11.2929C20.0976 11.6834 20.0976 12.3166 19.7071 12.7071L12.7071 19.7071C12.3166 20.0976 11.6834 20.0976 11.2929 19.7071C10.9024 19.3166 10.9024 18.6834 11.2929 18.2929L17.5858 12L11.2929 5.70711C10.9024 5.31658 10.9024 4.68342 11.2929 4.29289Z"/>
</symbol><symbol viewBox="0 0 24 24" id="cart" xmlns="http://www.w3.org/2000/svg">
<path fill-rule="evenodd" clip-rule="evenodd" d="M5.26985 5.94041C5.41225 5.76439 5.62654 5.66211 5.85294 5.66211H20.3512C21.5762 5.66211 22.49 6.80384 22.1948 8.00126L20.6486 14.8303L20.6444 14.8482C20.3309 16.0903 19.2683 16.9985 17.992 17.1251C17.97 17.1273 17.9479 17.1285 17.9257 17.1287L10.1297 17.2093C8.60208 17.3424 7.20277 16.3249 6.88211 14.8213C6.88208 14.8212 6.88213 14.8214 6.88211 14.8213L5.11949 6.56876C5.0722 6.34735 5.12746 6.11643 5.26985 5.94041ZM6.78005 7.16211L8.34902 14.508C8.5106 15.266 9.22575 15.7913 10.0177 15.7132C10.0396 15.7111 10.0615 15.7099 10.0835 15.7097L17.8738 15.6292C18.5103 15.5538 19.0305 15.0991 19.1879 14.4892L20.7336 7.66217L20.7378 7.64447C20.7979 7.40588 20.618 7.16211 20.3512 7.16211H6.78005Z"/>
<path fill-rule="evenodd" clip-rule="evenodd" d="M5.26985 5.94041C5.41225 5.76439 5.62654 5.66211 5.85294 5.66211H20.3512C21.5762 5.66211 22.49 6.80384 22.1948 8.00126L20.6486 14.8303L20.6444 14.8482C20.3309 16.0903 19.2683 16.9985 17.992 17.1251C17.97 17.1273 17.9479 17.1285 17.9257 17.1287L10.1297 17.2093C8.60208 17.3424 7.20277 16.3249 6.88211 14.8213C6.88208 14.8212 6.88213 14.8214 6.88211 14.8213L5.11949 6.56876C5.0722 6.34735 5.12746 6.11643 5.26985 5.94041ZM6.78005 7.16211L8.34902 14.508C8.5106 15.266 9.22575 15.7913 10.0177 15.7132C10.0396 15.7111 10.0615 15.7099 10.0835 15.7097L17.8738 15.6292C18.5103 15.5538 19.0305 15.0991 19.1879 14.4892L20.7336 7.66217L20.7378 7.64447C20.7979 7.40588 20.618 7.16211 20.3512 7.16211H6.78005Z"/>
<path fill-rule="evenodd" clip-rule="evenodd" d="M1.75 1.94141C1.75 1.52719 2.08579 1.19141 2.5 1.19141H4.93491C5.29097 1.19141 5.59795 1.44176 5.66958 1.79054L6.58761 6.26113C6.67093 6.66688 6.40955 7.06334 6.00381 7.14666C5.59806 7.22998 5.20159 6.96861 5.11827 6.56286L4.32327 2.69141H2.5C2.08579 2.69141 1.75 2.35562 1.75 1.94141Z"/>
<path fill-rule="evenodd" clip-rule="evenodd" d="M1.75 1.94141C1.75 1.52719 2.08579 1.19141 2.5 1.19141H4.93491C5.29097 1.19141 5.59795 1.44176 5.66958 1.79054L6.58761 6.26113C6.67093 6.66688 6.40955 7.06334 6.00381 7.14666C5.59806 7.22998 5.20159 6.96861 5.11827 6.56286L4.32327 2.69141H2.5C2.08579 2.69141 1.75 2.35562 1.75 1.94141Z"/>
<path fill-rule="evenodd" clip-rule="evenodd" d="M17.5468 21.5046C17.5425 20.8591 18.0664 20.3418 18.7037 20.3418C19.3441 20.3418 19.8618 20.8595 19.8649 21.4971L19.865 21.5009C19.865 22.1408 19.3459 22.6599 18.7059 22.6599C18.0672 22.6599 17.5488 22.1428 17.5468 21.5046ZM18.0764 21.503L17.5469 21.5083C17.5469 21.507 17.5468 21.5058 17.5468 21.5046C17.5468 21.5033 17.5468 21.5021 17.5468 21.5009H18.0749C18.0754 21.5016 18.0759 21.5023 18.0764 21.503ZM19.0468 21.5012L18.365 21.5046C18.3659 21.6907 18.5169 21.8418 18.7037 21.8418C18.4413 21.8418 18.2104 21.7071 18.0764 21.503L18.2968 21.5009H18.0749M19.0468 21.5012L19.0468 21.4934C19.0429 21.3084 18.8919 21.1599 18.7059 21.1599C18.7051 21.1599 18.7044 21.1599 18.7037 21.1599C18.5165 21.1611 18.3653 21.3128 18.365 21.5002C18.365 21.5004 18.365 21.5 18.365 21.5002L19.0468 21.5012C19.0468 21.5011 19.0468 21.5013 19.0468 21.5012Z"/>
<path fill-rule="evenodd" clip-rule="evenodd" d="M17.5468 21.5046C17.5425 20.8591 18.0664 20.3418 18.7037 20.3418C19.3441 20.3418 19.8618 20.8595 19.8649 21.4971L19.865 21.5009C19.865 22.1408 19.3459 22.6599 18.7059 22.6599C18.0672 22.6599 17.5488 22.1428 17.5468 21.5046ZM18.0764 21.503L17.5469 21.5083C17.5469 21.507 17.5468 21.5058 17.5468 21.5046C17.5468 21.5033 17.5468 21.5021 17.5468 21.5009H18.0749C18.0754 21.5016 18.0759 21.5023 18.0764 21.503ZM19.0468 21.5012L18.365 21.5046C18.3659 21.6907 18.5169 21.8418 18.7037 21.8418C18.4413 21.8418 18.2104 21.7071 18.0764 21.503L18.2968 21.5009H18.0749M19.0468 21.5012L19.0468 21.4934C19.0429 21.3084 18.8919 21.1599 18.7059 21.1599C18.7051 21.1599 18.7044 21.1599 18.7037 21.1599C18.5165 21.1611 18.3653 21.3128 18.365 21.5002C18.365 21.5004 18.365 21.5 18.365 21.5002L19.0468 21.5012C19.0468 21.5011 19.0468 21.5013 19.0468 21.5012Z"/>
<path fill-rule="evenodd" clip-rule="evenodd" d="M7.48855 21.4989C7.4862 20.8552 8.0093 20.3398 8.64539 20.3398C9.28648 20.3398 9.80556 20.8589 9.80556 21.5C9.80556 22.14 9.28648 22.6591 8.6465 22.6591C8.01173 22.6591 7.48621 22.1451 7.48855 21.4989Z"/>
<path fill-rule="evenodd" clip-rule="evenodd" d="M7.48855 21.4989C7.4862 20.8552 8.0093 20.3398 8.64539 20.3398C9.28648 20.3398 9.80556 20.8589 9.80556 21.5C9.80556 22.14 9.28648 22.6591 8.6465 22.6591C8.01173 22.6591 7.48621 22.1451 7.48855 21.4989Z"/>
</symbol><symbol viewBox="0 0 24 24" id="category" xmlns="http://www.w3.org/2000/svg">
<path fill-rule="evenodd" clip-rule="evenodd" d="M2.75 4.5C2.75 3.5335 3.5335 2.75 4.5 2.75H9.5C10.4665 2.75 11.25 3.5335 11.25 4.5V9.5C11.25 10.4665 10.4665 11.25 9.5 11.25H4.5C3.5335 11.25 2.75 10.4665 2.75 9.5V4.5ZM4.5 4.25C4.36193 4.25 4.25 4.36193 4.25 4.5V9.5C4.25 9.63807 4.36193 9.75 4.5 9.75H9.5C9.63807 9.75 9.75 9.63807 9.75 9.5V4.5C9.75 4.36193 9.63807 4.25 9.5 4.25H4.5Z"/>
<path fill-rule="evenodd" clip-rule="evenodd" d="M2.75 14.5C2.75 13.5335 3.5335 12.75 4.5 12.75H9.5C10.4665 12.75 11.25 13.5335 11.25 14.5V19.5C11.25 20.4665 10.4665 21.25 9.5 21.25H4.5C3.5335 21.25 2.75 20.4665 2.75 19.5V14.5ZM4.5 14.25C4.36193 14.25 4.25 14.3619 4.25 14.5V19.5C4.25 19.6381 4.36193 19.75 4.5 19.75H9.5C9.63807 19.75 9.75 19.6381 9.75 19.5V14.5C9.75 14.3619 9.63807 14.25 9.5 14.25H4.5Z"/>
<path fill-rule="evenodd" clip-rule="evenodd" d="M12.75 4.5C12.75 3.5335 13.5335 2.75 14.5 2.75H19.5C20.4665 2.75 21.25 3.5335 21.25 4.5V9.5C21.25 10.4665 20.4665 11.25 19.5 11.25H14.5C13.5335 11.25 12.75 10.4665 12.75 9.5V4.5ZM14.5 4.25C14.3619 4.25 14.25 4.36193 14.25 4.5V9.5C14.25 9.63807 14.3619 9.75 14.5 9.75H19.5C19.6381 9.75 19.75 9.63807 19.75 9.5V4.5C19.75 4.36193 19.6381 4.25 19.5 4.25H14.5Z"/>
<path fill-rule="evenodd" clip-rule="evenodd" d="M12.75 14.5C12.75 13.5335 13.5335 12.75 14.5 12.75H19.5C20.4665 12.75 21.25 13.5335 21.25 14.5V19.5C21.25 20.4665 20.4665 21.25 19.5 21.25H14.5C13.5335 21.25 12.75 20.4665 12.75 19.5V14.5ZM14.5 14.25C14.3619 14.25 14.25 14.3619 14.25 14.5V19.5C14.25 19.6381 14.3619 19.75 14.5 19.75H19.5C19.6381 19.75 19.75 19.6381 19.75 19.5V14.5C19.75 14.3619 19.6381 14.25 19.5 14.25H14.5Z"/>
</symbol><symbol viewBox="0 0 40 40" id="chat" xmlns="http://www.w3.org/2000/svg">
<path fill-rule="evenodd" clip-rule="evenodd" d="M32.3301 13.9187C33.2636 15.8101 33.7494 17.8908 33.75 20C33.7506 22.415 33.1151 24.7875 31.9075 26.8789C30.6999 28.9702 28.9627 30.7066 26.8709 31.9134C24.7791 33.1201 22.4063 33.7547 19.9913 33.7532C17.5764 33.7516 15.2044 33.1141 13.1141 31.9047C12.9242 31.7945 12.7086 31.7363 12.4891 31.7359C12.3546 31.736 12.221 31.7582 12.0938 31.8016L7.19885 33.4336C6.80795 33.564 6.43603 33.1921 6.56637 32.8012L8.19844 27.9063C8.2546 27.7383 8.27445 27.5604 8.25668 27.3842C8.2389 27.2081 8.1839 27.0377 8.09531 26.8844C7.03988 25.0583 6.4187 23.0138 6.27984 20.9092C6.14097 18.8046 6.48813 16.6963 7.29447 14.7473C8.10081 12.7983 9.34471 11.061 10.9299 9.66968C12.5151 8.27838 14.3992 7.2704 16.4363 6.72375C18.4734 6.1771 20.609 6.10641 22.6778 6.51717C24.7466 6.92793 26.6932 7.80912 28.3669 9.09256C30.0406 10.376 31.3967 12.0273 32.3301 13.9187ZM13.8792 18.7951C14.1176 18.6358 14.398 18.5508 14.6847 18.5508C15.0693 18.5508 15.4381 18.7035 15.71 18.9755C15.9819 19.2474 16.1346 19.6162 16.1346 20.0007C16.1346 20.2875 16.0496 20.5678 15.8903 20.8062C15.731 21.0447 15.5045 21.2305 15.2396 21.3403C14.9746 21.45 14.6831 21.4787 14.4019 21.4228C14.1206 21.3668 13.8623 21.2287 13.6595 21.026C13.4567 20.8232 13.3186 20.5648 13.2627 20.2836C13.2067 20.0023 13.2354 19.7108 13.3452 19.4458C13.4549 19.1809 13.6408 18.9545 13.8792 18.7951ZM21.2067 20.8062C21.366 20.5678 21.451 20.2875 21.451 20.0007C21.451 19.6162 21.2983 19.2474 21.0264 18.9755C20.7544 18.7035 20.3856 18.5508 20.0011 18.5508C19.7143 18.5508 19.434 18.6358 19.1956 18.7951C18.9571 18.9545 18.7713 19.1809 18.6616 19.4458C18.5518 19.7108 18.5231 20.0023 18.579 20.2836C18.635 20.5648 18.7731 20.8232 18.9759 21.026C19.1786 21.2287 19.437 21.3668 19.7182 21.4228C19.9995 21.4787 20.291 21.45 20.556 21.3403C20.8209 21.2305 21.0474 21.0447 21.2067 20.8062ZM25.3175 18.5508C25.0307 18.5508 24.7504 18.6358 24.512 18.7951C24.2735 18.9545 24.0877 19.1809 23.9779 19.4458C23.8682 19.7108 23.8395 20.0023 23.8954 20.2836C23.9514 20.5648 24.0895 20.8232 24.2922 21.026C24.495 21.2287 24.7534 21.3668 25.0346 21.4228C25.3159 21.4787 25.6074 21.45 25.8723 21.3403C26.1373 21.2305 26.3637 21.0447 26.5231 20.8062C26.6824 20.5678 26.7674 20.2875 26.7674 20.0007C26.7674 19.6162 26.6146 19.2474 26.3427 18.9755C26.0708 18.7035 25.702 18.5508 25.3175 18.5508Z"/>
</symbol><symbol viewBox="0 0 16 16" id="chevron" xmlns="http://www.w3.org/2000/svg">
<path fill-rule="evenodd" clip-rule="evenodd" d="M3.99999 4.93945L7.99999 8.93945L12 4.93945L13.0607 6.00011L7.99999 11.0608L2.93933 6.00011L3.99999 4.93945Z"/>
</symbol><symbol viewBox="0 0 24 24" id="close" xmlns="http://www.w3.org/2000/svg">
<path fill-rule="evenodd" clip-rule="evenodd" d="M6.99999 5.93945L12 10.9395L17 5.93945L18.0607 7.00011L13.0607 12.0001L18.0607 17.0001L17 18.0608L12 13.0608L6.99999 18.0608L5.93933 17.0001L10.9393 12.0001L5.93933 7.00011L6.99999 5.93945Z"/>
</symbol><symbol viewBox="0 0 24 24" id="compare" xmlns="http://www.w3.org/2000/svg">
<path fill-rule="evenodd" clip-rule="evenodd" d="M12 3.25C12.4142 3.25 12.75 3.58579 12.75 4V21C12.75 21.4142 12.4142 21.75 12 21.75C11.5858 21.75 11.25 21.4142 11.25 21V4C11.25 3.58579 11.5858 3.25 12 3.25Z"/>
<path fill-rule="evenodd" clip-rule="evenodd" d="M4 11.25C4.41421 11.25 4.75 11.5858 4.75 12L4.75 21C4.75 21.4142 4.41421 21.75 4 21.75C3.58579 21.75 3.25 21.4142 3.25 21L3.25 12C3.25 11.5858 3.58579 11.25 4 11.25Z"/>
<path fill-rule="evenodd" clip-rule="evenodd" d="M20 8.25C20.4142 8.25 20.75 8.58579 20.75 9V21C20.75 21.4142 20.4142 21.75 20 21.75C19.5858 21.75 19.25 21.4142 19.25 21V9C19.25 8.58579 19.5858 8.25 20 8.25Z"/>
</symbol><symbol viewBox="0 0 20 24" id="dots" xmlns="http://www.w3.org/2000/svg">
<path fill-rule="evenodd" clip-rule="evenodd" d="M2.3335 12C2.3335 11.0739 2.99134 10 4.16683 10C5.34232 10 6.00016 11.0739 6.00016 12C6.00016 12.9261 5.34232 14 4.16683 14C2.99134 14 2.3335 12.9261 2.3335 12ZM8.16683 12C8.16683 11.0739 8.82467 10 10.0002 10C11.1757 10 11.8335 11.0739 11.8335 12C11.8335 12.9261 11.1757 14 10.0002 14C8.82467 14 8.16683 12.9261 8.16683 12ZM14.0002 12C14.0002 11.0739 14.658 10 15.8335 10C17.009 10 17.6668 11.0739 17.6668 12C17.6668 12.9261 17.009 14 15.8335 14C14.658 14 14.0002 12.9261 14.0002 12Z"/>
</symbol><symbol viewBox="0 0 16 16" id="filter" xmlns="http://www.w3.org/2000/svg">
<path fill-rule="evenodd" clip-rule="evenodd" d="M0.583496 3.00917C0.583496 1.66942 1.66958 0.583332 3.00933 0.583332H12.991C14.3307 0.583332 15.4168 1.66942 15.4168 3.00917C15.4168 3.83585 15.1031 4.63174 14.5391 5.23609L11.0863 8.93543C10.8703 9.16689 10.7502 9.47171 10.7502 9.78833V12.0486C10.7502 12.7115 10.3757 13.3174 9.78279 13.6139L7.78279 14.6139C6.61921 15.1957 5.25016 14.3495 5.25016 13.0486V9.78832C5.25016 9.47171 5.13001 9.16689 4.91398 8.93543L1.46127 5.23609C0.897204 4.63174 0.583496 3.83585 0.583496 3.00917ZM3.00933 2.08333C2.49801 2.08333 2.0835 2.49784 2.0835 3.00917C2.0835 3.45591 2.25303 3.88602 2.55785 4.21261L6.01056 7.91195C6.48584 8.42117 6.75016 9.09177 6.75016 9.78832V13.0486C6.75016 13.2345 6.94574 13.3554 7.11197 13.2722L9.11197 12.2722C9.19666 12.2299 9.25016 12.1433 9.25016 12.0486V9.78833C9.25016 9.09177 9.51449 8.42117 9.98976 7.91195L13.4425 4.21261C13.7473 3.88602 13.9168 3.45591 13.9168 3.00917C13.9168 2.49784 13.5023 2.08333 12.991 2.08333H3.00933Z"/>
</symbol><symbol viewBox="0 0 16 17" id="flag" xmlns="http://www.w3.org/2000/svg">
<path d="M12 14.8333L8.30214 12.4306C8.21132 12.3716 8.10638 12.3403 7.99929 12.3403C7.89219 12.3403 7.78725 12.3716 7.69643 12.4306L4 14.8333V2.83331H12V14.8333Z"/>
</symbol><symbol viewBox="0 0 24 24" id="home" xmlns="http://www.w3.org/2000/svg">
<path fill-rule="evenodd" clip-rule="evenodd" d="M11.9361 3.02514C11.9295 3.02784 11.9055 3.03912 11.8538 3.07365C11.7694 3.13003 11.6622 3.21283 11.4781 3.35601L4.6958 8.63114C4.2089 9.00984 4.08267 9.11627 3.99497 9.23484C3.90456 9.35708 3.8372 9.4948 3.79622 9.64121C3.75647 9.78323 3.74995 9.94822 3.74995 10.5651V17.8C3.74995 18.3724 3.75054 18.7566 3.77471 19.0525C3.79817 19.3396 3.84005 19.4769 3.88619 19.5675C4.00604 19.8027 4.19726 19.9939 4.43246 20.1137C4.52303 20.1599 4.66031 20.2018 4.94743 20.2252C5.24331 20.2494 5.62752 20.25 6.19995 20.25H17.8C18.3724 20.25 18.7566 20.2494 19.0525 20.2252C19.3396 20.2018 19.4769 20.1599 19.5674 20.1137C19.8026 19.9939 19.9939 19.8027 20.1137 19.5675C20.1599 19.4769 20.2017 19.3396 20.2252 19.0525C20.2494 18.7566 20.25 18.3724 20.25 17.8V10.5651C20.25 9.94822 20.2434 9.78323 20.2037 9.64121C20.1627 9.49479 20.0953 9.35708 20.0049 9.23484C19.9172 9.11627 19.791 9.00984 19.3041 8.63114L12.5218 3.35601C12.3377 3.21283 12.2305 3.13003 12.1461 3.07365C12.0944 3.03912 12.0704 3.02784 12.0638 3.02514C12.022 3.01408 11.978 3.01408 11.9361 3.02514ZM12.0619 3.02442C12.0618 3.02439 12.0627 3.02468 12.0638 3.02514ZM11.9361 3.02514C11.9372 3.02468 11.9381 3.02439 11.938 3.02442ZM11.5426 1.57767C11.8421 1.49657 12.1578 1.49657 12.4573 1.57767C12.8026 1.67115 13.096 1.9008 13.3719 2.11667C13.3956 2.13525 13.4192 2.15371 13.4427 2.17198L20.225 7.44711C20.2478 7.46486 20.2704 7.48237 20.2926 7.49967C20.6802 7.80064 20.985 8.03739 21.2109 8.34287C21.4098 8.6118 21.558 8.91477 21.6482 9.23689C21.7506 9.60278 21.7503 9.98875 21.75 10.4794C21.75 10.5076 21.75 10.5362 21.75 10.5651V17.8304C21.75 18.3646 21.75 18.8104 21.7202 19.1747C21.6892 19.5545 21.6221 19.9112 21.4502 20.2485C21.1866 20.7659 20.7659 21.1866 20.2484 21.4503C19.9112 21.6221 19.5545 21.6892 19.1746 21.7202C18.8104 21.75 18.3646 21.75 17.8304 21.75H6.1695C5.63535 21.75 5.18951 21.75 4.82528 21.7202C4.4454 21.6892 4.08874 21.6221 3.75148 21.4503C3.23403 21.1866 2.81334 20.7659 2.54969 20.2485C2.37784 19.9112 2.31073 19.5545 2.27969 19.1747C2.24993 18.8104 2.24994 18.3646 2.24995 17.8304L2.24995 10.5651C2.24995 10.5361 2.24993 10.5076 2.24991 10.4794C2.24958 9.98874 2.24932 9.60278 2.35174 9.23689C2.44191 8.91477 2.59008 8.6118 2.78899 8.34287C3.01493 8.03739 3.31975 7.80064 3.70726 7.49966C3.72953 7.48237 3.75207 7.46486 3.77489 7.44711L10.5572 2.17198C10.5807 2.15371 10.6043 2.13524 10.628 2.11667C10.9039 1.9008 11.1973 1.67115 11.5426 1.57767ZM7.24995 17C7.24995 16.5858 7.58574 16.25 7.99995 16.25H16C16.4142 16.25 16.75 16.5858 16.75 17C16.75 17.4142 16.4142 17.75 16 17.75H7.99995C7.58574 17.75 7.24995 17.4142 7.24995 17Z"/>
</symbol><symbol viewBox="0 0 24 24" id="list" xmlns="http://www.w3.org/2000/svg">
<path fill-rule="evenodd" clip-rule="evenodd" d="M2.75 5.5C2.75 4.5335 3.5335 3.75 4.5 3.75H19.5C20.4665 3.75 21.25 4.5335 21.25 5.5V9.5C21.25 10.4665 20.4665 11.25 19.5 11.25H4.5C3.5335 11.25 2.75 10.4665 2.75 9.5V5.5ZM4.5 5.25C4.36193 5.25 4.25 5.36193 4.25 5.5V9.5C4.25 9.63807 4.36193 9.75 4.5 9.75H19.5C19.6381 9.75 19.75 9.63807 19.75 9.5V5.5C19.75 5.36193 19.6381 5.25 19.5 5.25H4.5Z"/>
<path fill-rule="evenodd" clip-rule="evenodd" d="M2.75 14.5C2.75 13.5335 3.5335 12.75 4.5 12.75H19.5C20.4665 12.75 21.25 13.5335 21.25 14.5V18.5C21.25 19.4665 20.4665 20.25 19.5 20.25H4.5C3.5335 20.25 2.75 19.4665 2.75 18.5V14.5ZM4.5 14.25C4.36193 14.25 4.25 14.3619 4.25 14.5V18.5C4.25 18.6381 4.36193 18.75 4.5 18.75H19.5C19.6381 18.75 19.75 18.6381 19.75 18.5V14.5C19.75 14.3619 19.6381 14.25 19.5 14.25H4.5Z"/>
</symbol><symbol viewBox="0 0 16 20" id="location" xmlns="http://www.w3.org/2000/svg">
<path fill-rule="evenodd" clip-rule="evenodd" d="M8 0.833336C3.85786 0.833336 0.5 4.1912 0.5 8.33333C0.5 10.9326 1.95322 12.8046 3.44054 14.3537C3.79942 14.7275 4.16952 15.0914 4.52733 15.4433L4.57385 15.4891C4.94936 15.8584 5.31051 16.2146 5.65071 16.5731C6.33459 17.2939 6.89299 17.9827 7.25464 18.706C7.3958 18.9883 7.68436 19.1667 8 19.1667C8.31564 19.1667 8.60419 18.9883 8.74536 18.706C9.10701 17.9827 9.66541 17.2939 10.3493 16.5731C10.6895 16.2146 11.0506 15.8584 11.4261 15.4891L11.4726 15.4434C11.8304 15.0915 12.2006 14.7275 12.5595 14.3537C14.0468 12.8046 15.5 10.9326 15.5 8.33333C15.5 4.1912 12.1421 0.833336 8 0.833336ZM8 11.6667C9.84095 11.6667 11.3333 10.1743 11.3333 8.33333C11.3333 6.49239 9.84095 5 8 5C6.15905 5 4.66667 6.49239 4.66667 8.33333C4.66667 10.1743 6.15905 11.6667 8 11.6667Z"/>
</symbol><symbol viewBox="0 0 24 24" id="mail" xmlns="http://www.w3.org/2000/svg">
<path fill-rule="evenodd" clip-rule="evenodd" d="M1.25 9C1.25 5.82436 3.82436 3.25 7 3.25H17C20.1756 3.25 22.75 5.82436 22.75 9V15C22.75 18.1756 20.1756 20.75 17 20.75H7C3.82436 20.75 1.25 18.1756 1.25 15V9ZM7 4.75C4.65279 4.75 2.75 6.65279 2.75 9V15C2.75 17.3472 4.65279 19.25 7 19.25H17C19.3472 19.25 21.25 17.3472 21.25 15V9C21.25 6.65279 19.3472 4.75 17 4.75H7Z"/>
<path fill-rule="evenodd" clip-rule="evenodd" d="M5.39998 8.55004C5.64851 8.21867 6.11861 8.15152 6.44998 8.40004L11.25 12C11.6944 12.3334 12.3055 12.3334 12.75 12L17.55 8.40004C17.8814 8.15152 18.3515 8.21867 18.6 8.55004C18.8485 8.88142 18.7814 9.35152 18.45 9.60004L13.65 13.2C12.6722 13.9334 11.3278 13.9334 10.35 13.2L5.54998 9.60004C5.21861 9.35152 5.15145 8.88142 5.39998 8.55004Z"/>
</symbol><symbol viewBox="0 0 24 24" id="phone" xmlns="http://www.w3.org/2000/svg">
<path fill-rule="evenodd" clip-rule="evenodd" d="M4.53812 3.12091C5.73525 1.92378 7.67413 1.97934 8.86815 3.17336L10.8612 5.16645C12.0553 6.36047 12.1108 8.29935 10.9137 9.49648L10.6373 9.77286C10.4291 9.98109 10.4066 10.3187 10.6046 10.5586C11.0217 11.0641 11.4691 11.5648 11.9522 12.0479C12.4353 12.5309 12.936 12.9784 13.4415 13.3955C13.6813 13.5934 14.019 13.571 14.2272 13.3627L14.5036 13.0864C15.7007 11.8892 17.6396 11.9448 18.8336 13.1388L20.8267 15.1319C22.0207 16.3259 22.0763 18.2648 20.8791 19.4619L19.5924 20.7487C18.2846 22.0564 16.1453 21.9506 14.0638 21.1869C11.9173 20.3993 9.52182 18.816 7.35292 16.6471C5.18403 14.4782 3.60073 12.0828 2.81317 9.93628C2.04946 7.85479 1.94364 5.7154 3.25135 4.40768L4.53812 3.12091ZM7.80749 4.23402C7.16692 3.59345 6.1783 3.60205 5.59878 4.18157L4.31202 5.46834C4.31202 5.46834 4.31202 5.46834 4.31202 5.46834C3.66542 6.11494 3.50061 7.45517 4.22138 9.4196C4.91829 11.319 6.36293 13.5358 8.41358 15.5865C10.4642 17.6371 12.681 19.0818 14.5804 19.7787C16.5449 20.4994 17.8851 20.3346 18.5317 19.688L19.8185 18.4013C20.398 17.8217 20.4066 16.8331 19.766 16.1926L17.7729 14.1995C17.1324 13.5589 16.1437 13.5675 15.5642 14.147L15.2878 14.4234C14.5368 15.1744 13.327 15.2458 12.4868 14.5524C11.9504 14.1098 11.4134 13.6304 10.8915 13.1085C10.3696 12.5866 9.89021 12.0496 9.44761 11.5133C8.75422 10.673 8.82563 9.46321 9.57664 8.7122L9.85303 8.43582C10.4325 7.8563 10.4411 6.86768 9.80058 6.22711L7.80749 4.23402Z"/>
</symbol><symbol viewBox="0 0 24 24" id="search" xmlns="http://www.w3.org/2000/svg">
<path fill-rule="evenodd" clip-rule="evenodd" d="M11 3.75C6.99594 3.75 3.75 6.99594 3.75 11C3.75 15.0041 6.99594 18.25 11 18.25C15.0041 18.25 18.25 15.0041 18.25 11C18.25 6.99594 15.0041 3.75 11 3.75ZM2.25 11C2.25 6.16751 6.16751 2.25 11 2.25C15.8325 2.25 19.75 6.16751 19.75 11C19.75 15.8325 15.8325 19.75 11 19.75C6.16751 19.75 2.25 15.8325 2.25 11Z"/>
<path fill-rule="evenodd" clip-rule="evenodd" d="M15.9697 16.4267C16.2626 16.1338 16.7374 16.1338 17.0303 16.4267L22.0303 21.4268C22.3232 21.7197 22.3232 22.1945 22.0303 22.4874C21.7374 22.7803 21.2626 22.7803 20.9697 22.4874L15.9697 17.4874C15.6768 17.1945 15.6768 16.7196 15.9697 16.4267Z"/>
</symbol><symbol viewBox="0 0 16 16" id="tag" xmlns="http://www.w3.org/2000/svg">
<g clip-path="url(#qclip0_8631_161652)">
<path fill-rule="evenodd" clip-rule="evenodd" d="M6.91723 2.10019C6.87017 2.08889 6.8115 2.08407 6.44968 2.08407L3.46667 2.08407C3.08093 2.08407 2.83673 2.08465 2.65202 2.09975C2.47606 2.11412 2.4211 2.13784 2.40184 2.14765C2.29208 2.20358 2.20284 2.29282 2.14692 2.40258C2.13711 2.42183 2.11339 2.47679 2.09901 2.65275C2.08392 2.83746 2.08334 3.08166 2.08334 3.4674L2.08334 6.45041C2.08334 6.81223 2.08816 6.8709 2.09946 6.91796C2.11375 6.97748 2.13731 7.03438 2.1693 7.08658C2.19458 7.12784 2.23266 7.17273 2.48851 7.42858L7.60093 12.541C8.00569 12.9458 8.27779 13.217 8.5041 13.4092C8.72371 13.5956 8.8504 13.6631 8.94707 13.6945C9.19812 13.776 9.46856 13.776 9.71961 13.6945C9.81627 13.6631 9.94296 13.5956 10.1626 13.4092C10.3889 13.217 10.661 12.9458 11.0658 12.541L12.5403 11.0665C12.945 10.6617 13.2163 10.3896 13.4084 10.1633C13.5949 9.94369 13.6623 9.81701 13.6937 9.72034C13.7753 9.46929 13.7753 9.19885 13.6937 8.9478C13.6623 8.85113 13.5949 8.72445 13.4084 8.50483C13.2163 8.27852 12.945 8.00643 12.5403 7.60166L7.42785 2.48924C7.172 2.23339 7.12711 2.19532 7.08584 2.17003C7.03365 2.13805 6.97675 2.11448 6.91723 2.10019ZM6.50798 0.584027C6.77605 0.583726 7.02503 0.583447 7.2674 0.641633C7.47997 0.692668 7.68319 0.776844 7.86959 0.89107C8.08211 1.0213 8.25797 1.19756 8.44731 1.38732C8.46097 1.40101 8.47469 1.41477 8.48851 1.42858L13.6224 6.56252C14.0002 6.94022 14.3154 7.25547 14.5519 7.53407C14.7986 7.82463 15.0033 8.12428 15.1203 8.48427C15.2998 9.03659 15.2998 9.63155 15.1203 10.1839C15.0033 10.5439 14.7986 10.8435 14.5519 11.1341C14.3154 11.4127 14.0001 11.7279 13.6224 12.1056L12.1049 13.6232C11.7272 14.0009 11.4119 14.3162 11.1333 14.5527C10.8428 14.7993 10.5431 15.0041 10.1831 15.121C9.63082 15.3005 9.03586 15.3005 8.48354 15.121C8.12355 15.0041 7.8239 14.7993 7.53333 14.5527C7.25474 14.3162 6.93948 14.0009 6.56179 13.6232L1.42785 8.48924C1.41403 8.47542 1.40028 8.4617 1.38659 8.44804C1.19683 8.2587 1.02057 8.08284 0.890338 7.87032C0.776112 7.68392 0.691936 7.48071 0.640901 7.26813C0.582714 7.02577 0.582994 6.77678 0.583295 6.50871C0.583317 6.48938 0.583338 6.46995 0.583338 6.45041L0.583339 3.4674C0.583339 3.45797 0.583338 3.44858 0.583338 3.43921C0.583323 3.08995 0.58331 2.78377 0.603995 2.5306C0.62595 2.26188 0.674896 1.98755 0.810409 1.72159C1.01014 1.32959 1.32885 1.01088 1.72086 0.811141C1.98682 0.675628 2.26115 0.626682 2.52987 0.604727C2.78304 0.584042 3.08922 0.584055 3.43848 0.58407C3.44785 0.58407 3.45724 0.584071 3.46667 0.584071L6.44968 0.584071C6.46922 0.584071 6.48865 0.584049 6.50798 0.584027ZM4.25001 5.33407C4.25001 4.73576 4.73503 4.25074 5.33334 4.25074C5.93165 4.25074 6.41667 4.73576 6.41667 5.33407C6.41667 5.93238 5.93165 6.4174 5.33334 6.4174C4.73503 6.4174 4.25001 5.93238 4.25001 5.33407Z"/>
<path fill-rule="evenodd" clip-rule="evenodd" d="M6.91723 2.10019C6.87017 2.08889 6.8115 2.08407 6.44968 2.08407L3.46667 2.08407C3.08093 2.08407 2.83673 2.08465 2.65202 2.09975C2.47606 2.11412 2.4211 2.13784 2.40184 2.14765C2.29208 2.20358 2.20284 2.29282 2.14692 2.40258C2.13711 2.42183 2.11339 2.47679 2.09901 2.65275C2.08392 2.83746 2.08334 3.08166 2.08334 3.4674L2.08334 6.45041C2.08334 6.81223 2.08816 6.8709 2.09946 6.91796C2.11375 6.97748 2.13731 7.03438 2.1693 7.08658C2.19458 7.12784 2.23266 7.17273 2.48851 7.42858L7.60093 12.541C8.00569 12.9458 8.27779 13.217 8.5041 13.4092C8.72371 13.5956 8.8504 13.6631 8.94707 13.6945C9.19812 13.776 9.46856 13.776 9.71961 13.6945C9.81627 13.6631 9.94296 13.5956 10.1626 13.4092C10.3889 13.217 10.661 12.9458 11.0658 12.541L12.5403 11.0665C12.945 10.6617 13.2163 10.3896 13.4084 10.1633C13.5949 9.94369 13.6623 9.81701 13.6937 9.72034C13.7753 9.46929 13.7753 9.19885 13.6937 8.9478C13.6623 8.85113 13.5949 8.72445 13.4084 8.50483C13.2163 8.27852 12.945 8.00643 12.5403 7.60166L7.42785 2.48924C7.172 2.23339 7.12711 2.19532 7.08584 2.17003C7.03365 2.13805 6.97675 2.11448 6.91723 2.10019ZM6.50798 0.584027C6.77605 0.583726 7.02503 0.583447 7.2674 0.641633C7.47997 0.692668 7.68319 0.776844 7.86959 0.89107C8.08211 1.0213 8.25797 1.19756 8.44731 1.38732C8.46097 1.40101 8.47469 1.41477 8.48851 1.42858L13.6224 6.56252C14.0002 6.94022 14.3154 7.25547 14.5519 7.53407C14.7986 7.82463 15.0033 8.12428 15.1203 8.48427C15.2998 9.03659 15.2998 9.63155 15.1203 10.1839C15.0033 10.5439 14.7986 10.8435 14.5519 11.1341C14.3154 11.4127 14.0001 11.7279 13.6224 12.1056L12.1049 13.6232C11.7272 14.0009 11.4119 14.3162 11.1333 14.5527C10.8428 14.7993 10.5431 15.0041 10.1831 15.121C9.63082 15.3005 9.03586 15.3005 8.48354 15.121C8.12355 15.0041 7.8239 14.7993 7.53333 14.5527C7.25474 14.3162 6.93948 14.0009 6.56179 13.6232L1.42785 8.48924C1.41403 8.47542 1.40028 8.4617 1.38659 8.44804C1.19683 8.2587 1.02057 8.08284 0.890338 7.87032C0.776112 7.68392 0.691936 7.48071 0.640901 7.26813C0.582714 7.02577 0.582994 6.77678 0.583295 6.50871C0.583317 6.48938 0.583338 6.46995 0.583338 6.45041L0.583339 3.4674C0.583339 3.45797 0.583338 3.44858 0.583338 3.43921C0.583323 3.08995 0.58331 2.78377 0.603995 2.5306C0.62595 2.26188 0.674896 1.98755 0.810409 1.72159C1.01014 1.32959 1.32885 1.01088 1.72086 0.811141C1.98682 0.675628 2.26115 0.626682 2.52987 0.604727C2.78304 0.584042 3.08922 0.584055 3.43848 0.58407C3.44785 0.58407 3.45724 0.584071 3.46667 0.584071L6.44968 0.584071C6.46922 0.584071 6.48865 0.584049 6.50798 0.584027ZM4.25001 5.33407C4.25001 4.73576 4.73503 4.25074 5.33334 4.25074C5.93165 4.25074 6.41667 4.73576 6.41667 5.33407C6.41667 5.93238 5.93165 6.4174 5.33334 6.4174C4.73503 6.4174 4.25001 5.93238 4.25001 5.33407Z"/>
</g>
<defs>
<clipPath id="qclip0_8631_161652">
<rect width="16" height="16"/>
</clipPath>
</defs>
</symbol><symbol viewBox="0 0 24 24" id="user" xmlns="http://www.w3.org/2000/svg">
<path fill-rule="evenodd" clip-rule="evenodd" d="M12 3.75C11.138 3.75 10.3114 4.09241 9.7019 4.7019C9.09241 5.3114 8.75 6.13805 8.75 7C8.75 7.86195 9.09241 8.6886 9.7019 9.2981C10.3114 9.90759 11.138 10.25 12 10.25C12.862 10.25 13.6886 9.90759 14.2981 9.2981C14.9076 8.6886 15.25 7.86195 15.25 7C15.25 6.13805 14.9076 5.3114 14.2981 4.7019C13.6886 4.09241 12.862 3.75 12 3.75ZM8.64124 3.64124C9.53204 2.75044 10.7402 2.25 12 2.25C13.2598 2.25 14.468 2.75044 15.3588 3.64124C16.2496 4.53204 16.75 5.74022 16.75 7C16.75 8.25978 16.2496 9.46796 15.3588 10.3588C14.468 11.2496 13.2598 11.75 12 11.75C10.7402 11.75 9.53204 11.2496 8.64124 10.3588C7.75044 9.46796 7.25 8.25978 7.25 7C7.25 5.74022 7.75044 4.53204 8.64124 3.64124ZM6.51992 15.5199C7.97333 14.0665 9.94457 13.25 12 13.25C14.0554 13.25 16.0267 14.0665 17.4801 15.5199C18.9335 16.9733 19.75 18.9446 19.75 21C19.75 21.4142 19.4142 21.75 19 21.75H5C4.80109 21.75 4.61032 21.671 4.46967 21.5303C4.32902 21.3897 4.25 21.1989 4.25 21C4.25 18.9446 5.06652 16.9733 6.51992 15.5199ZM12 14.75C10.3424 14.75 8.75268 15.4085 7.58058 16.5806C6.58666 17.5745 5.96206 18.8687 5.79514 20.25H18.2049C18.0379 18.8687 17.4133 17.5745 16.4194 16.5806C15.2473 15.4085 13.6576 14.75 12 14.75Z"/>
</symbol><symbol viewBox="0 0 24 24" id="whatsapp" xmlns="http://www.w3.org/2000/svg">
<path fill-rule="evenodd" clip-rule="evenodd" d="M12.2707 21.4737C10.2857 21.4737 8.30075 20.9323 6.67669 19.8496L2.88722 21.1128L4.15038 17.5038C3.06767 15.8797 2.34586 13.8947 2.34586 11.7293C2.34586 11.3684 2.34586 11.0075 2.34586 10.8271C2.88722 5.77444 7.03759 1.80451 12.2707 1.80451C17.5038 1.80451 21.6541 5.77444 22.1955 11.0075C22.1955 11.188 22.1955 11.3684 22.1955 11.7293C22.1955 17.1429 17.6842 21.4737 12.2707 21.4737ZM24 11.3684C23.8195 5.05263 18.5865 0 12.2707 0C5.95489 0 0.721804 4.87218 0.360902 11.188C0.360902 11.3684 0.360902 11.5489 0.360902 11.7293C0.360902 13.8947 1.08271 16.0601 2.16541 17.6842L0 24L6.49624 22.015C8.1203 22.9173 10.1053 23.4586 12.2707 23.4586C18.7669 23.4586 24 18.2256 24 11.7293C24 11.5489 24 11.5489 24 11.3684Z"/>
<path fill-rule="evenodd" clip-rule="evenodd" d="M17.6824 14.0758C17.3215 13.8954 15.8779 13.1735 15.6974 13.1735C15.3365 12.9931 15.1561 12.9931 14.9756 13.354C14.7952 13.5345 14.2538 14.2563 14.0734 14.4367C13.8929 14.6172 13.7125 14.6172 13.532 14.4367C13.1711 14.2563 12.2689 14.0758 11.1862 12.9931C10.2839 12.2713 9.74255 11.369 9.5621 11.0081C9.38165 10.8277 9.5621 10.6472 9.5621 10.4668C9.74255 10.2863 9.923 10.1059 10.1035 9.92543C10.1035 9.92543 10.1035 9.92543 10.1035 9.74498C10.2839 9.74498 10.2839 9.56453 10.2839 9.56453C10.4644 9.20362 10.4644 9.20362 10.2839 9.02317C10.2839 8.84272 9.74255 7.39911 9.38165 6.85776C9.2012 6.31641 9.02075 6.31641 8.8403 6.31641C8.65984 6.31641 8.47939 6.31641 8.29894 6.31641C8.11849 6.31641 7.75759 6.49686 7.39669 6.67731C7.21623 7.03821 6.49443 7.76002 6.49443 9.02317C6.49443 9.38408 6.49443 9.74498 6.67488 10.1059C6.85533 11.0081 7.57714 11.9104 7.57714 12.0908C7.75759 12.2713 9.5621 15.339 12.6298 16.4217C15.517 17.5044 15.517 17.1435 16.0583 17.1435C16.5997 17.1435 17.8629 16.4217 18.0433 15.6999C18.2238 15.1585 18.2238 14.4367 18.2238 14.4367C18.0433 14.2563 17.8629 14.2563 17.6824 14.0758Z"/>
</symbol><symbol viewBox="0 0 24 24" id="wishlist" xmlns="http://www.w3.org/2000/svg">
<path d="M16.4643 3C14.6205 3 13.0063 3.8327 12 5.24022C10.9937 3.8327 9.37946 3 7.53571 3C6.06806 3.00174 4.66099 3.61483 3.6232 4.70476C2.58541 5.7947 2.00165 7.27247 2 8.81387C2 15.3779 11.267 20.691 11.6616 20.9105C11.7656 20.9692 11.8819 21 12 21C12.1181 21 12.2344 20.9692 12.3384 20.9105C12.733 20.691 22 15.3779 22 8.81387C21.9983 7.27247 21.4146 5.7947 20.3768 4.70476C19.339 3.61483 17.9319 3.00174 16.4643 3ZM12 19.3914C10.3696 18.3936 3.42857 13.8485 3.42857 8.81387C3.42999 7.67031 3.86316 6.57402 4.63309 5.7654C5.40302 4.95678 6.44687 4.50184 7.53571 4.50035C9.27232 4.50035 10.7304 5.47183 11.3393 7.0322C11.3931 7.16979 11.4846 7.28747 11.6023 7.37029C11.7199 7.45312 11.8584 7.49734 12 7.49734C12.1416 7.49734 12.2801 7.45312 12.3977 7.37029C12.5154 7.28747 12.6069 7.16979 12.6607 7.0322C13.2696 5.46902 14.7277 4.50035 16.4643 4.50035C17.5531 4.50184 18.597 4.95678 19.3669 5.7654C20.1368 6.57402 20.57 7.67031 20.5714 8.81387C20.5714 13.841 13.6286 18.3927 12 19.3914Z"/>
</symbol></svg>