<svg width="41" height="40" viewBox="0 0 41 40" fill="none" xmlns="http://www.w3.org/2000/svg">
<path d="M30.7646 2.5H10.2346C9.08821 2.5 7.98877 2.95541 7.17814 3.76603C6.36751 4.57666 5.91211 5.6761 5.91211 6.8225V29.635C5.91211 30.7814 6.36751 31.8808 7.17814 32.6915C7.98877 33.5021 9.08821 33.9575 10.2346 33.9575H19.0609V31.425C17.9079 30.1819 17.2668 28.5493 17.2659 26.8538C17.2659 23.1275 20.2984 20.095 24.0246 20.095C27.7509 20.095 30.7821 23.1262 30.7821 26.8538C30.7818 28.5506 30.1396 30.1845 28.9846 31.4275V33.9575H30.7621C31.9085 33.9575 33.008 33.5021 33.8186 32.6915C34.6292 31.8808 35.0846 30.7814 35.0846 29.635V6.8225C35.0851 6.25493 34.9737 5.69284 34.7568 5.16835C34.5399 4.64386 34.2218 4.16726 33.8206 3.76582C33.4193 3.36437 32.9429 3.04594 32.4186 2.82874C31.8942 2.61155 31.3322 2.49984 30.7646 2.5ZM17.7809 16.6838H12.5871C12.2887 16.6838 12.0026 16.5652 11.7916 16.3542C11.5806 16.1433 11.4621 15.8571 11.4621 15.5587C11.4621 15.2604 11.5806 14.9742 11.7916 14.7633C12.0026 14.5523 12.2887 14.4338 12.5871 14.4338H17.7809C18.0792 14.4338 18.3654 14.5523 18.5764 14.7633C18.7873 14.9742 18.9059 15.2604 18.9059 15.5587C18.9059 15.8571 18.7873 16.1433 18.5764 16.3542C18.3654 16.5652 18.0792 16.6838 17.7809 16.6838ZM24.1409 10.5675H12.5871C12.2887 10.5675 12.0026 10.449 11.7916 10.238C11.5806 10.027 11.4621 9.74087 11.4621 9.4425C11.4621 9.14413 11.5806 8.85798 11.7916 8.64701C12.0026 8.43603 12.2887 8.3175 12.5871 8.3175H24.1409C24.4392 8.3175 24.7254 8.43603 24.9364 8.64701C25.1473 8.85798 25.2659 9.14413 25.2659 9.4425C25.2659 9.74087 25.1473 10.027 24.9364 10.238C24.7254 10.449 24.4392 10.5675 24.1409 10.5675Z" fill="#1A73E8"/>
<path d="M30.7646 2.5H10.2346C9.08821 2.5 7.98877 2.95541 7.17814 3.76603C6.36751 4.57666 5.91211 5.6761 5.91211 6.8225V29.635C5.91211 30.7814 6.36751 31.8808 7.17814 32.6915C7.98877 33.5021 9.08821 33.9575 10.2346 33.9575H19.0609V31.425C17.9079 30.1819 17.2668 28.5493 17.2659 26.8538C17.2659 23.1275 20.2984 20.095 24.0246 20.095C27.7509 20.095 30.7821 23.1262 30.7821 26.8538C30.7818 28.5506 30.1396 30.1845 28.9846 31.4275V33.9575H30.7621C31.9085 33.9575 33.008 33.5021 33.8186 32.6915C34.6292 31.8808 35.0846 30.7814 35.0846 29.635V6.8225C35.0851 6.25493 34.9737 5.69284 34.7568 5.16835C34.5399 4.64386 34.2218 4.16726 33.8206 3.76582C33.4193 3.36437 32.9429 3.04594 32.4186 2.82874C31.8942 2.61155 31.3322 2.49984 30.7646 2.5ZM17.7809 16.6838H12.5871C12.2887 16.6838 12.0026 16.5652 11.7916 16.3542C11.5806 16.1433 11.4621 15.8571 11.4621 15.5587C11.4621 15.2604 11.5806 14.9742 11.7916 14.7633C12.0026 14.5523 12.2887 14.4338 12.5871 14.4338H17.7809C18.0792 14.4338 18.3654 14.5523 18.5764 14.7633C18.7873 14.9742 18.9059 15.2604 18.9059 15.5587C18.9059 15.8571 18.7873 16.1433 18.5764 16.3542C18.3654 16.5652 18.0792 16.6838 17.7809 16.6838ZM24.1409 10.5675H12.5871C12.2887 10.5675 12.0026 10.449 11.7916 10.238C11.5806 10.027 11.4621 9.74087 11.4621 9.4425C11.4621 9.14413 11.5806 8.85798 11.7916 8.64701C12.0026 8.43603 12.2887 8.3175 12.5871 8.3175H24.1409C24.4392 8.3175 24.7254 8.43603 24.9364 8.64701C25.1473 8.85798 25.2659 9.14413 25.2659 9.4425C25.2659 9.74087 25.1473 10.027 24.9364 10.238C24.7254 10.449 24.4392 10.5675 24.1409 10.5675Z" fill="#0073CE"/>
<path d="M30.7646 2.5H10.2346C9.08821 2.5 7.98877 2.95541 7.17814 3.76603C6.36751 4.57666 5.91211 5.6761 5.91211 6.8225V29.635C5.91211 30.7814 6.36751 31.8808 7.17814 32.6915C7.98877 33.5021 9.08821 33.9575 10.2346 33.9575H19.0609V31.425C17.9079 30.1819 17.2668 28.5493 17.2659 26.8538C17.2659 23.1275 20.2984 20.095 24.0246 20.095C27.7509 20.095 30.7821 23.1262 30.7821 26.8538C30.7818 28.5506 30.1396 30.1845 28.9846 31.4275V33.9575H30.7621C31.9085 33.9575 33.008 33.5021 33.8186 32.6915C34.6292 31.8808 35.0846 30.7814 35.0846 29.635V6.8225C35.0851 6.25493 34.9737 5.69284 34.7568 5.16835C34.5399 4.64386 34.2218 4.16726 33.8206 3.76582C33.4193 3.36437 32.9429 3.04594 32.4186 2.82874C31.8942 2.61155 31.3322 2.49984 30.7646 2.5ZM17.7809 16.6838H12.5871C12.2887 16.6838 12.0026 16.5652 11.7916 16.3542C11.5806 16.1433 11.4621 15.8571 11.4621 15.5587C11.4621 15.2604 11.5806 14.9742 11.7916 14.7633C12.0026 14.5523 12.2887 14.4338 12.5871 14.4338H17.7809C18.0792 14.4338 18.3654 14.5523 18.5764 14.7633C18.7873 14.9742 18.9059 15.2604 18.9059 15.5587C18.9059 15.8571 18.7873 16.1433 18.5764 16.3542C18.3654 16.5652 18.0792 16.6838 17.7809 16.6838ZM24.1409 10.5675H12.5871C12.2887 10.5675 12.0026 10.449 11.7916 10.238C11.5806 10.027 11.4621 9.74087 11.4621 9.4425C11.4621 9.14413 11.5806 8.85798 11.7916 8.64701C12.0026 8.43603 12.2887 8.3175 12.5871 8.3175H24.1409C24.4392 8.3175 24.7254 8.43603 24.9364 8.64701C25.1473 8.85798 25.2659 9.14413 25.2659 9.4425C25.2659 9.74087 25.1473 10.027 24.9364 10.238C24.7254 10.449 24.4392 10.5675 24.1409 10.5675Z" fill="#327FDA"/>
<path d="M24.0262 33.6131C22.9125 33.6131 21.8638 33.3381 20.9375 32.8594V37.4994L24.025 35.2869L27.1125 37.4994V32.8594C26.1591 33.3544 25.1006 33.6129 24.0262 33.6131Z" fill="#1A73E8"/>
<path d="M24.0262 33.6131C22.9125 33.6131 21.8638 33.3381 20.9375 32.8594V37.4994L24.025 35.2869L27.1125 37.4994V32.8594C26.1591 33.3544 25.1006 33.6129 24.0262 33.6131Z" fill="#0073CE"/>
<path d="M24.0262 33.6131C22.9125 33.6131 21.8638 33.3381 20.9375 32.8594V37.4994L24.025 35.2869L27.1125 37.4994V32.8594C26.1591 33.3544 25.1006 33.6129 24.0262 33.6131Z" fill="#327FDA"/>
<path d="M24.0263 31.7382C26.7235 31.7382 28.9101 29.5517 28.9101 26.8545C28.9101 24.1572 26.7235 21.9707 24.0263 21.9707C21.3291 21.9707 19.1426 24.1572 19.1426 26.8545C19.1426 29.5517 21.3291 31.7382 24.0263 31.7382Z" fill="#1A73E8"/>
<path d="M24.0263 31.7382C26.7235 31.7382 28.9101 29.5517 28.9101 26.8545C28.9101 24.1572 26.7235 21.9707 24.0263 21.9707C21.3291 21.9707 19.1426 24.1572 19.1426 26.8545C19.1426 29.5517 21.3291 31.7382 24.0263 31.7382Z" fill="#0073CE"/>
<path d="M24.0263 31.7382C26.7235 31.7382 28.9101 29.5517 28.9101 26.8545C28.9101 24.1572 26.7235 21.9707 24.0263 21.9707C21.3291 21.9707 19.1426 24.1572 19.1426 26.8545C19.1426 29.5517 21.3291 31.7382 24.0263 31.7382Z" fill="#327FDA"/>
</svg>
