<svg width="24" height="24" viewBox="0 0 24 24" fill="none" xmlns="http://www.w3.org/2000/svg">
<path d="M12 5C10.22 5 8.47991 5.52784 6.99987 6.51677C5.51983 7.50571 4.36628 8.91131 3.68509 10.5558C3.0039 12.2004 2.82567 14.01 3.17294 15.7558C3.5202 17.5016 4.37737 19.1053 5.63604 20.364C6.89471 21.6226 8.49836 22.4798 10.2442 22.8271C11.99 23.1743 13.7996 22.9961 15.4442 22.3149C17.0887 21.6337 18.4943 20.4802 19.4832 19.0001C20.4722 17.5201 21 15.78 21 14C20.9973 11.6139 20.0482 9.32629 18.3609 7.63905C16.6737 5.95182 14.3861 5.00273 12 5ZM12 21.5C10.5166 21.5 9.0666 21.0601 7.83323 20.236C6.59986 19.4119 5.63856 18.2406 5.07091 16.8701C4.50325 15.4997 4.35473 13.9917 4.64411 12.5368C4.9335 11.082 5.64781 9.74559 6.6967 8.6967C7.7456 7.6478 9.08197 6.9335 10.5368 6.64411C11.9917 6.35472 13.4997 6.50325 14.8701 7.0709C16.2406 7.63856 17.4119 8.59985 18.236 9.83322C19.0601 11.0666 19.5 12.5166 19.5 14C19.4978 15.9884 18.7069 17.8948 17.3008 19.3008C15.8948 20.7069 13.9884 21.4978 12 21.5ZM16.2806 9.71937C16.3504 9.78903 16.4057 9.87175 16.4434 9.96279C16.4812 10.0538 16.5006 10.1514 16.5006 10.25C16.5006 10.3486 16.4812 10.4462 16.4434 10.5372C16.4057 10.6283 16.3504 10.711 16.2806 10.7806L12.5306 14.5306C12.4609 14.6003 12.3782 14.6556 12.2872 14.6933C12.1961 14.731 12.0985 14.7504 12 14.7504C11.9015 14.7504 11.8039 14.731 11.7128 14.6933C11.6218 14.6556 11.5391 14.6003 11.4694 14.5306C11.3997 14.4609 11.3444 14.3782 11.3067 14.2872C11.269 14.1961 11.2496 14.0985 11.2496 14C11.2496 13.9015 11.269 13.8039 11.3067 13.7128C11.3444 13.6218 11.3997 13.5391 11.4694 13.4694L15.2194 9.71937C15.289 9.64964 15.3717 9.59432 15.4628 9.55658C15.5538 9.51884 15.6514 9.49941 15.75 9.49941C15.8486 9.49941 15.9462 9.51884 16.0372 9.55658C16.1283 9.59432 16.211 9.64964 16.2806 9.71937ZM9 2.75C9 2.55109 9.07902 2.36032 9.21967 2.21967C9.36033 2.07902 9.55109 2 9.75 2H14.25C14.4489 2 14.6397 2.07902 14.7803 2.21967C14.921 2.36032 15 2.55109 15 2.75C15 2.94891 14.921 3.13968 14.7803 3.28033C14.6397 3.42098 14.4489 3.5 14.25 3.5H9.75C9.55109 3.5 9.36033 3.42098 9.21967 3.28033C9.07902 3.13968 9 2.94891 9 2.75Z" fill="black" fill-opacity="0.4"/>
</svg>
