<svg width="20" height="20" viewBox="0 0 20 20" fill="none" xmlns="http://www.w3.org/2000/svg">
<path d="M10 5C10.4602 5 10.8333 4.62691 10.8333 4.16667C10.8333 3.70643 10.4602 3.33334 10 3.33334C9.53977 3.33334 9.16668 3.70643 9.16668 4.16667C9.16668 4.62691 9.53977 5 10 5Z" stroke="white" stroke-width="1.5" stroke-linecap="round" stroke-linejoin="round"/>
<path d="M10 10.8333C10.4602 10.8333 10.8333 10.4602 10.8333 10C10.8333 9.53977 10.4602 9.16667 10 9.16667C9.53977 9.16667 9.16668 9.53977 9.16668 10C9.16668 10.4602 9.53977 10.8333 10 10.8333Z" stroke="white" stroke-width="1.5" stroke-linecap="round" stroke-linejoin="round"/>
<path d="M10 16.6667C10.4602 16.6667 10.8333 16.2936 10.8333 15.8333C10.8333 15.3731 10.4602 15 10 15C9.53977 15 9.16668 15.3731 9.16668 15.8333C9.16668 16.2936 9.53977 16.6667 10 16.6667Z" stroke="white" stroke-width="1.5" stroke-linecap="round" stroke-linejoin="round"/>
<path d="M15.8333 5C16.2936 5 16.6667 4.62691 16.6667 4.16667C16.6667 3.70643 16.2936 3.33334 15.8333 3.33334C15.3731 3.33334 15 3.70643 15 4.16667C15 4.62691 15.3731 5 15.8333 5Z" stroke="white" stroke-width="1.5" stroke-linecap="round" stroke-linejoin="round"/>
<path d="M15.8333 10.8333C16.2936 10.8333 16.6667 10.4602 16.6667 10C16.6667 9.53977 16.2936 9.16667 15.8333 9.16667C15.3731 9.16667 15 9.53977 15 10C15 10.4602 15.3731 10.8333 15.8333 10.8333Z" stroke="white" stroke-width="1.5" stroke-linecap="round" stroke-linejoin="round"/>
<path d="M15.8333 16.6667C16.2936 16.6667 16.6667 16.2936 16.6667 15.8333C16.6667 15.3731 16.2936 15 15.8333 15C15.3731 15 15 15.3731 15 15.8333C15 16.2936 15.3731 16.6667 15.8333 16.6667Z" stroke="white" stroke-width="1.5" stroke-linecap="round" stroke-linejoin="round"/>
<path d="M4.16668 5C4.62691 5 5.00001 4.62691 5.00001 4.16667C5.00001 3.70643 4.62691 3.33334 4.16668 3.33334C3.70644 3.33334 3.33334 3.70643 3.33334 4.16667C3.33334 4.62691 3.70644 5 4.16668 5Z" stroke="white" stroke-width="1.5" stroke-linecap="round" stroke-linejoin="round"/>
<path d="M4.16668 10.8333C4.62691 10.8333 5.00001 10.4602 5.00001 10C5.00001 9.53977 4.62691 9.16667 4.16668 9.16667C3.70644 9.16667 3.33334 9.53977 3.33334 10C3.33334 10.4602 3.70644 10.8333 4.16668 10.8333Z" stroke="white" stroke-width="1.5" stroke-linecap="round" stroke-linejoin="round"/>
<path d="M4.16668 16.6667C4.62691 16.6667 5.00001 16.2936 5.00001 15.8333C5.00001 15.3731 4.62691 15 4.16668 15C3.70644 15 3.33334 15.3731 3.33334 15.8333C3.33334 16.2936 3.70644 16.6667 4.16668 16.6667Z" stroke="white" stroke-width="1.5" stroke-linecap="round" stroke-linejoin="round"/>
</svg>
