<svg width="30" height="30" viewBox="0 0 30 30" fill="none" xmlns="http://www.w3.org/2000/svg">
<g clip-path="url(#clip0_10616_76475)">
<path fill-rule="evenodd" clip-rule="evenodd" d="M26.25 8.4375V26.25C26.25 27.2446 25.8549 28.1984 25.1516 28.9016C24.4484 29.6049 23.4946 30 22.5 30H20.625V28.125H22.5C22.9973 28.125 23.4742 27.9275 23.8258 27.5758C24.1775 27.2242 24.375 26.7473 24.375 26.25V8.4375H20.625C19.8791 8.4375 19.1637 8.14118 18.6363 7.61374C18.1088 7.08629 17.8125 6.37092 17.8125 5.625V1.875H7.5C7.00272 1.875 6.52581 2.07254 6.17417 2.42417C5.82254 2.77581 5.625 3.25272 5.625 3.75V20.625H3.75V3.75C3.75 2.75544 4.14509 1.80161 4.84835 1.09835C5.55161 0.395088 6.50544 0 7.5 0L17.8125 0L26.25 8.4375ZM12.135 28.6687C12.0117 28.4043 11.941 28.1183 11.9269 27.8269H13.3612C13.3873 27.973 13.443 28.1123 13.5249 28.2362C13.6068 28.36 13.7132 28.4657 13.8375 28.5469C13.97 28.6381 14.1263 28.7094 14.3063 28.7606C14.485 28.8119 14.6844 28.8375 14.9044 28.8375C15.2119 28.8375 15.47 28.7938 15.6788 28.7063C15.8699 28.6347 16.0361 28.5089 16.1569 28.3444C16.2648 28.1839 16.3205 27.994 16.3162 27.8006C16.3211 27.6832 16.2975 27.5663 16.2476 27.4599C16.1977 27.3535 16.1228 27.2607 16.0294 27.1894C15.8394 27.0394 15.5506 26.9187 15.1631 26.8275L14.0025 26.5594C13.6451 26.4845 13.3033 26.3488 12.9919 26.1581C12.7169 25.9892 12.4903 25.7522 12.3338 25.47C12.1767 25.1667 12.0975 24.829 12.1031 24.4875C12.1031 24.03 12.2219 23.6306 12.4594 23.2894C12.6969 22.9494 13.0262 22.6856 13.4475 22.4981C13.87 22.3106 14.3556 22.2175 14.9044 22.2188C15.4756 22.2188 15.9631 22.3137 16.3669 22.5037C16.7719 22.695 17.0844 22.9512 17.3044 23.2725C17.5294 23.5912 17.6544 23.945 17.6794 24.3337H16.2731C16.241 24.1558 16.1635 23.9892 16.0481 23.85C15.9257 23.6987 15.7661 23.5818 15.585 23.5106C15.3659 23.42 15.1301 23.3765 14.8931 23.3831C14.4869 23.3831 14.1662 23.4781 13.9312 23.6681C13.8211 23.7525 13.7325 23.8617 13.6725 23.9868C13.6126 24.1119 13.583 24.2494 13.5862 24.3881C13.5862 24.6131 13.6756 24.8006 13.8544 24.9506C14.0799 25.1152 14.3394 25.2273 14.6138 25.2788L15.7762 25.5469C16.1837 25.6406 16.5375 25.7725 16.8375 25.9425C17.1268 26.1005 17.3693 26.3321 17.5406 26.6138C17.7094 26.8913 17.7937 27.2412 17.7937 27.6637C17.7937 28.1262 17.6763 28.5362 17.4413 28.8937C17.193 29.2618 16.8413 29.5482 16.4306 29.7169C15.9919 29.9144 15.4556 30.0131 14.8219 30.0131C14.3456 30.0131 13.93 29.9569 13.575 29.8444C13.2484 29.7466 12.944 29.5861 12.6788 29.3719C12.4486 29.1798 12.263 28.9399 12.135 28.6687ZM6.61312 22.3725H4.93875L3.39375 25.0687H3.32625L1.76625 22.3725H0.0225L2.32312 26.0906L0 29.8706H1.61438L3.21375 27.2175H3.27937L4.87312 29.8706H6.57562L4.22438 26.1375L6.61312 22.3725ZM11.7263 28.6069H8.54438V22.3725H7.06312V29.8725H11.7263V28.6069Z" fill="black"/>
</g>
<defs>
<clipPath id="clip0_10616_76475">
<rect width="30" height="30" fill="white"/>
</clipPath>
</defs>
</svg>
