<svg width="18" height="18" viewBox="0 0 18 18" fill="none" xmlns="http://www.w3.org/2000/svg">
<path fill-rule="evenodd" clip-rule="evenodd" d="M9 16.875C13.3492 16.875 16.875 13.3492 16.875 9C16.875 4.65076 13.3492 1.125 9 1.125C4.65076 1.125 1.125 4.65076 1.125 9C1.125 13.3492 4.65076 16.875 9 16.875ZM10.125 6.1875C10.125 6.80882 9.62132 7.3125 9 7.3125C8.37868 7.3125 7.875 6.80882 7.875 6.1875C7.875 5.56618 8.37868 5.0625 9 5.0625C9.62132 5.0625 10.125 5.56618 10.125 6.1875ZM9 8.71875C9.46599 8.71875 9.84375 9.09651 9.84375 9.5625V12.375C9.84375 12.841 9.46599 13.2187 9 13.2187C8.53401 13.2187 8.15625 12.841 8.15625 12.375V9.5625C8.15625 9.09651 8.53401 8.71875 9 8.71875Z" fill="#348BDC"/>
</svg>
