<svg width="32" height="32" viewBox="0 0 32 32" fill="none" xmlns="http://www.w3.org/2000/svg">
<path d="M29 13.7807C29 23.0147 16 32 16 32C16 32 3 23.0147 3 13.7807C3 6.72212 8.8203 1 16 1C23.1797 1 29 6.72212 29 13.7807Z" fill="#1A73E8"/>
<path d="M29 13.7807C29 23.0147 16 32 16 32C16 32 3 23.0147 3 13.7807C3 6.72212 8.8203 1 16 1C23.1797 1 29 6.72212 29 13.7807Z" fill="#0073CE"/>
<path d="M29 13.7807C29 23.0147 16 32 16 32C16 32 3 23.0147 3 13.7807C3 6.72212 8.8203 1 16 1C23.1797 1 29 6.72212 29 13.7807Z" fill="#327FDA"/>
<ellipse cx="16" cy="13.4016" rx="5.6875" ry="5.425" fill="white"/>
</svg>
