<svg width="40" height="40" viewBox="0 0 40 40" fill="none" xmlns="http://www.w3.org/2000/svg">
<path fill-rule="evenodd" clip-rule="evenodd" d="M23.507 3C23.9448 3 24.3646 3.17598 24.6741 3.48923L32.9277 11.841C33.2372 12.1542 33.4111 12.5791 33.4111 13.0221V31.3959C33.4111 34.1634 31.194 36.4069 28.459 36.4069H11.9521C9.21712 36.4069 7 34.1634 7 31.3959V8.01104C7 5.24352 9.21712 3 11.9521 3H23.507ZM29.4264 13.022L23.5053 7.03216L23.507 13.022H29.4264Z" fill="#EE7767"/>
<path fill-rule="evenodd" clip-rule="evenodd" d="M23.507 3C23.9448 3 24.3646 3.17598 24.6741 3.48923L32.9277 11.841C33.2372 12.1542 33.4111 12.5791 33.4111 13.0221V31.3959C33.4111 34.1634 31.194 36.4069 28.459 36.4069H11.9521C9.21712 36.4069 7 34.1634 7 31.3959V8.01104C7 5.24352 9.21712 3 11.9521 3H23.507ZM29.4264 13.022L23.5053 7.03216L23.507 13.022H29.4264Z" fill="#F26552"/>
<path d="M16.8819 21.3942C16.8718 20.8813 16.6995 20.3583 16.3954 19.948C16.1015 19.5275 15.6656 19.2198 15.1791 19.0659C14.946 18.9942 14.6926 18.9531 14.4392 18.9531H11.1045V26.3378H12.483V23.825H14.4392C15.2399 23.825 15.9697 23.4352 16.3954 22.8403C16.6995 22.4302 16.8921 21.907 16.8819 21.3942ZM15.2602 22.0712C15.0473 22.3583 14.7027 22.5223 14.429 22.5223H12.483V20.266H14.429C14.7129 20.266 15.0271 20.4403 15.2196 20.666C15.392 20.8608 15.473 21.1275 15.4832 21.3942C15.4933 21.6403 15.4021 21.8762 15.2602 22.0712Z" fill="white"/>
<path d="M23.463 20.8403C22.865 19.6813 21.6284 18.9531 20.402 18.9531H17.8984V26.3378H20.402C21.6386 26.3378 22.865 25.5993 23.463 24.4507C23.7468 23.8763 23.8785 23.2507 23.8785 22.6455C23.8785 22.0403 23.7468 21.4147 23.463 20.8403ZM22.2366 23.8147C21.8818 24.5532 21.071 25.0147 20.331 25.025L19.2972 25.0352V20.2557L20.331 20.266C21.1419 20.2762 21.8818 20.7583 22.2366 21.4762C22.3987 21.825 22.4697 22.225 22.4798 22.6455C22.49 23.066 22.3987 23.466 22.2366 23.8147Z" fill="white"/>
<path d="M29.5515 20.348V18.9531H25.0918V26.3378H26.4702V23.343H28.9434V21.948H26.4702V20.348H29.5515Z" fill="white"/>
</svg>
