<svg width="40" height="40" viewBox="0 0 40 40" fill="none" xmlns="http://www.w3.org/2000/svg">
<rect width="40" height="40" rx="20" fill="#419FD9"/>
<path d="M9.24466 18.9076C11.393 17.7509 13.7912 16.7855 16.0319 15.8152C19.8868 14.2259 23.757 12.6641 27.6663 11.2101C28.4269 10.9624 29.7935 10.7202 29.9275 11.8219C29.8541 13.3814 29.5522 14.9318 29.3452 16.4822C28.8197 19.8916 28.2123 23.2894 27.62 26.6877C27.4159 27.8196 25.9652 28.4056 25.037 27.6812C22.8062 26.2084 20.5583 24.7498 18.3561 23.2429C17.6346 22.5264 18.3036 21.4974 18.9479 20.9858C20.7852 19.2159 22.7337 17.7122 24.475 15.8509C24.9447 14.7423 23.5569 15.6766 23.0991 15.9629C20.5838 17.6572 18.1301 19.4548 15.4781 20.9439C14.1235 21.6727 12.5447 21.0499 11.1907 20.6432C9.97676 20.1519 8.19777 19.6569 9.24454 18.9078L9.24466 18.9076Z" fill="white"/>
</svg>
