<svg width="40" height="40" viewBox="0 0 40 40" fill="none" xmlns="http://www.w3.org/2000/svg">
<rect width="40" height="40" rx="20" fill="#0DC143"/>
<path d="M28.9589 11.0094C26.8148 8.8022 23.8508 7.604 20.8238 7.604C14.3913 7.604 9.22017 12.8382 9.28323 19.2076C9.28323 21.2256 9.8508 23.1806 10.7967 24.9463L9.1571 30.9373L15.2742 29.3608C16.9769 30.3067 18.8688 30.7481 20.7607 30.7481C27.1301 30.7481 32.3013 25.5139 32.3013 19.1445C32.3013 16.0545 31.1031 13.1536 28.9589 11.0094ZM20.8238 28.7932C19.1211 28.7932 17.4184 28.3518 15.9679 27.4689L15.5895 27.2797L11.9319 28.2256L12.8778 24.631L12.6256 24.2527C9.8508 19.7752 11.1751 13.8472 15.7157 11.0725C20.2562 8.2977 26.1211 9.62202 28.8958 14.1626C31.6706 18.7031 30.3463 24.568 25.8058 27.3427C24.3553 28.2887 22.5895 28.7932 20.8238 28.7932ZM26.3733 21.7932L25.6796 21.4779C25.6796 21.4779 24.6706 21.0364 24.04 20.7211C23.9769 20.7211 23.9139 20.6581 23.8508 20.6581C23.6616 20.6581 23.5355 20.7211 23.4094 20.7842C23.4094 20.7842 23.3463 20.8472 22.4634 21.8563C22.4003 21.9824 22.2742 22.0454 22.1481 22.0454H22.085C22.022 22.0454 21.8958 21.9824 21.8328 21.9193L21.5175 21.7932C20.8238 21.4779 20.1931 21.0995 19.6886 20.595C19.5625 20.4689 19.3733 20.3427 19.2472 20.2166C18.8058 19.7752 18.3643 19.2707 18.049 18.7031L17.9859 18.577C17.9229 18.5139 17.9229 18.4509 17.8598 18.3247C17.8598 18.1986 17.8598 18.0725 17.9229 18.0094C17.9229 18.0094 18.1751 17.6941 18.3643 17.5049C18.4904 17.3788 18.5535 17.1896 18.6796 17.0635C18.8058 16.8743 18.8688 16.622 18.8058 16.4328C18.7427 16.1175 17.9859 14.4148 17.7967 14.0364C17.6706 13.8472 17.5445 13.7842 17.3553 13.7211H17.1661C17.04 13.7211 16.8508 13.7211 16.6616 13.7211C16.5355 13.7211 16.4094 13.7842 16.2832 13.7842L16.2202 13.8472C16.094 13.9103 15.9679 14.0364 15.8418 14.0995C15.7157 14.2256 15.6526 14.3518 15.5265 14.4779C15.085 15.0454 14.8328 15.7391 14.8328 16.4328C14.8328 16.9373 14.9589 17.4418 15.1481 17.8833L15.2112 18.0725C15.7787 19.2707 16.5355 20.3427 17.5445 21.2887L17.7967 21.5409C17.9859 21.7301 18.1751 21.8563 18.3012 22.0454C19.6256 23.1806 21.1391 24.0004 22.8418 24.4418C23.031 24.5049 23.2832 24.5049 23.4724 24.568C23.6616 24.568 23.9139 24.568 24.1031 24.568C24.4184 24.568 24.7967 24.4418 25.049 24.3157C25.2382 24.1896 25.3643 24.1896 25.4904 24.0635L25.6166 23.9373C25.7427 23.8112 25.8688 23.7481 25.9949 23.622C26.1211 23.4959 26.2472 23.3698 26.3103 23.2436C26.4364 22.9914 26.4994 22.6761 26.5625 22.3608C26.5625 22.2346 26.5625 22.0454 26.5625 21.9193C26.5625 21.9193 26.4994 21.8563 26.3733 21.7932Z" fill="white"/>
</svg>
