<svg width="24" height="24" viewBox="0 0 24 24" fill="none" xmlns="http://www.w3.org/2000/svg">
<path fill-rule="evenodd" clip-rule="evenodd" d="M12.2707 21.4737C10.2857 21.4737 8.30075 20.9323 6.67669 19.8496L2.88722 21.1128L4.15038 17.5038C3.06767 15.8797 2.34586 13.8947 2.34586 11.7293C2.34586 11.3684 2.34586 11.0075 2.34586 10.8271C2.88722 5.77444 7.03759 1.80451 12.2707 1.80451C17.5038 1.80451 21.6541 5.77444 22.1955 11.0075C22.1955 11.188 22.1955 11.3684 22.1955 11.7293C22.1955 17.1429 17.6842 21.4737 12.2707 21.4737ZM24 11.3684C23.8195 5.05263 18.5865 0 12.2707 0C5.95489 0 0.721804 4.87218 0.360902 11.188C0.360902 11.3684 0.360902 11.5489 0.360902 11.7293C0.360902 13.8947 1.08271 16.0602 2.16541 17.6842L0 24L6.49624 22.015C8.1203 22.9173 10.1053 23.4586 12.2707 23.4586C18.7669 23.4586 24 18.2256 24 11.7293C24 11.5489 24 11.5489 24 11.3684Z" fill="#2CC861"/>
<path fill-rule="evenodd" clip-rule="evenodd" d="M17.6824 14.0748C17.3215 13.8944 15.8778 13.1726 15.6974 13.1726C15.3365 12.9921 15.156 12.9921 14.9756 13.353C14.7951 13.5335 14.2538 14.2553 14.0733 14.4357C13.8929 14.6162 13.7124 14.6162 13.532 14.4357C13.1711 14.2553 12.2688 14.0748 11.1861 12.9921C10.2839 12.2703 9.7425 11.3681 9.56205 11.0072C9.3816 10.8267 9.56205 10.6463 9.56205 10.4658C9.7425 10.2854 9.92296 10.1049 10.1034 9.92445C10.1034 9.92445 10.1034 9.92445 10.1034 9.744C10.2839 9.744 10.2839 9.56355 10.2839 9.56355C10.4643 9.20265 10.4643 9.20265 10.2839 9.0222C10.2839 8.84175 9.7425 7.39814 9.3816 6.85678C9.20115 6.31543 9.0207 6.31543 8.84025 6.31543C8.6598 6.31543 8.47935 6.31543 8.2989 6.31543C8.11844 6.31543 7.75754 6.49588 7.39664 6.67633C7.21619 7.03723 6.49438 7.75904 6.49438 9.0222C6.49438 9.3831 6.49438 9.744 6.67484 10.1049C6.85529 11.0072 7.57709 11.9094 7.57709 12.0899C7.75754 12.2703 9.56205 15.338 12.6297 16.4207C15.5169 17.5034 15.5169 17.1425 16.0583 17.1425C16.5996 17.1425 17.8628 16.4207 18.0433 15.6989C18.2237 15.1575 18.2237 14.4357 18.2237 14.4357C18.0433 14.2553 17.8628 14.2553 17.6824 14.0748Z" fill="#2CC861"/>
</svg>
